<svg xmlns="http://www.w3.org/2000/svg" xmlns:xlink="http://www.w3.org/1999/xlink" width="88px" height="49px" viewBox="0 0 88 49"><title>code</title><g id="Page-1" stroke="none" stroke-width="1" fill="none" fill-rule="evenodd"><g id="Desktop-HD-Copy" transform="translate(-1154.000000, -3468.000000)" fill="#FFFFFF" fill-rule="nonzero"><g id="Footer" transform="translate(0.000000, 3287.000000)"><g id="code" transform="translate(1154.000000, 181.000000)"><g id="CODE"><path d="M56.6180128,0 C57.7253903,0.220713073 58.877063,0.33106961 59.962293,0.640067912 C65.6099186,2.25127334 69.6629206,7.68081494 68.9099038,14.4567063 C68.2233297,20.5042445 64.5025411,24.5874363 58.8106204,25.713073 C57.6146526,25.9558574 56.3300946,25.9117148 55.0676842,26 C55.0676842,25.3599321 55.0676842,24.9185059 55.0676842,24.3887946 C58.9435057,24.6095076 62.2434908,23.4617997 64.7904592,20.5263158 C66.6730011,18.3633277 67.5810507,15.803056 67.5367556,12.9558574 C67.4924605,9.6672326 66.2964927,6.82003396 63.8381145,4.56876061 C61.4018839,2.31748727 58.434112,1.54499151 55.1562744,1.69949066 C54.9569464,0.926994907 54.779766,0.264855688 55.7542583,0 C56.0200289,0 56.3300946,0 56.6180128,0 Z" id="Path"></path><path d="M88,2 C84.4100418,2 80.8200837,2 77.0920502,2 C77.0690377,1.37142857 77.0460251,0.828571429 77,0 C80.7050209,0 84.3640167,0 88,0 C88,0.685714286 88,1.34285714 88,2 Z" id="Path"></path><path d="M88,26 C84.6877637,26 81.3966245,26 78,26 C78,25.3428571 78,24.8 78,24 C81.3333333,24 84.6666667,24 88,24 C88,24.6571429 88,25.3142857 88,26 Z" id="Path"></path><path d="M11,0 C11,0.454939341 11,0.909878683 11,1.45147314 C7.750499,1.94974003 5.18163673,3.5745234 3.35928144,6.30415945 C1.93213573,8.44887348 1.38323353,10.8102253 1.53692615,13.3665511 C1.86626747,18.4792028 5.20359281,22.1187175 10.9780439,23.5701906 C10.9780439,24.02513 10.9780439,24.5017331 10.9780439,25 C4.76447106,24.6533795 0,18.8258232 0,12.5866551 C0,5.78422877 5.20359281,0.303292894 11,0 Z" id="Path"></path><path d="M42,2.96844427 C41.6916868,3.29950098 41.3613513,3.6305577 41.0089934,4.02782575 C38.366309,2.10769681 35.503401,1.09245621 32.2220679,1.75456964 C29.8656744,2.24011949 27.9497283,3.45399411 26.3641177,5.21962993 C23.0387399,8.92746513 22.2018898,15.0409791 25.8796255,19.9185481 C25.54929,20.2716752 25.1969321,20.6468728 24.8665965,21 C20.660324,16.6079809 21.1668385,8.02257678 25.8355808,3.43192367 C30.2840994,-0.93802497 37.7496827,-1.18079989 42,2.96844427 Z" id="Path"></path><path d="M42.25576,6.04054536 C42.5649728,5.70845642 42.8741856,5.35422821 43.1833985,5 C47.0485588,9.47213114 47.3577716,18.0178867 41.4385547,23.1541957 C36.3144564,27.6263268 29.1363015,26.2536925 26,22.9770816 C26.3533861,22.6892712 26.7288588,22.3793215 27.0822449,22.0915111 C32.4934693,25.2131472 37.1316617,25.0360331 40.8422156,21.5601688 C44.28773,18.3942541 46.2313535,12.1952605 42.25576,6.04054536 Z" id="Path"></path><path d="M51,0.132181065 C51.6716418,-0.158720013 52,-0.0244579765 52,1.09439232 C51.9850746,9.08298346 51.9850746,17.0939516 51.9850746,25.0825428 C51.9850746,25.3734438 51.9552239,25.6643449 51.9253731,26 C51.5970149,26 51.3283582,26 51,26 C51,17.3400987 51,8.76970538 51,0.132181065 Z" id="Path"></path><path d="M74,26 C73.6333333,26 73.3333333,26 73,26 C73,17.363167 73,8.79345955 73,0.0671256454 C73.3,0.0447504303 73.6166667,0.0223752151 74,0 C74,8.70395869 74,17.2960413 74,26 Z" id="Path"></path><path d="M77,12 C79.6739726,12 82.2821918,12 85,12 C85,12.3174603 85,12.6507937 85,13 C82.369863,13 79.7178082,13 77,13 C77,12.6507937 77,12.3492063 77,12 Z" id="Path"></path><path d="M20,3.14583333 C19.6466877,3.5 19.3154574,3.83333333 19.1608833,4 C17.1293375,3.04166667 15.1861199,2.125 13.2429022,1.20833333 C13.1545741,1.29166667 13.0883281,1.39583333 13,1.47916667 C13,1.02083333 13,0.5625 13,0 C15.7381703,0.25 17.9905363,1.35416667 20,3.14583333 Z" id="Path"></path><path d="M13,26 C13,25.5270936 13,25.1133005 13,24.8965517 C15.0601266,24.0295567 17.0094937,23.182266 18.9810127,22.3546798 C19.0031646,22.2364532 19.0031646,22.1182266 19.0253165,22 C19.335443,22.3349754 19.6455696,22.6699507 20,23.0246305 C18.028481,24.7192118 15.7468354,25.7044335 13,26 Z" id="Path"></path></g><g id="30-under-30" transform="translate(3.896267, 37.960938)"><path d="M5.453125,6.8671875 C5.453125,7.60677083 5.27994792,8.22395833 4.93359375,8.71875 C4.58723958,9.21354167 4.12760417,9.5859375 3.5546875,9.8359375 C2.98177083,10.0859375 2.34895833,10.2109375 1.65625,10.2109375 C1.484375,10.2109375 1.26822917,10.1979167 1.0078125,10.171875 C0.747395833,10.1458333 0.514322917,10.078125 0.30859375,9.96875 C0.102864583,9.859375 0,9.68489583 0,9.4453125 C0,9.29947917 0.0598958333,9.1796875 0.1796875,9.0859375 C0.299479167,8.9921875 0.427083333,8.9453125 0.5625,8.9453125 C0.765625,8.9453125 0.970052083,9 1.17578125,9.109375 C1.38151042,9.21875 1.60026042,9.328125 1.83203125,9.4375 C2.06380208,9.546875 2.32291667,9.6015625 2.609375,9.6015625 C2.94791667,9.6015625 3.25130208,9.51432292 3.51953125,9.33984375 C3.78776042,9.16536458 4,8.93619792 4.15625,8.65234375 C4.3125,8.36848958 4.390625,8.0625 4.390625,7.734375 C4.390625,7.171875 4.26692708,6.71223958 4.01953125,6.35546875 C3.77213542,5.99869792 3.43880208,5.734375 3.01953125,5.5625 C2.60026042,5.390625 2.1328125,5.30208333 1.6171875,5.296875 L1.6171875,5.0703125 C2.00260417,5.0234375 2.359375,4.89973958 2.6875,4.69921875 C3.015625,4.49869792 3.27994792,4.23828125 3.48046875,3.91796875 C3.68098958,3.59765625 3.78125,3.23697917 3.78125,2.8359375 C3.78125,2.37760417 3.63932292,1.99479167 3.35546875,1.6875 C3.07161458,1.38020833 2.69010417,1.2265625 2.2109375,1.2265625 C1.80989583,1.2265625 1.45833333,1.33723958 1.15625,1.55859375 C0.854166667,1.77994792 0.596354167,2.05989583 0.3828125,2.3984375 L0.140625,2.2890625 C0.322916667,1.90364583 0.524739583,1.55729167 0.74609375,1.25 C0.967447917,0.942708333 1.23697917,0.69921875 1.5546875,0.51953125 C1.87239583,0.33984375 2.26302083,0.25 2.7265625,0.25 C3.11197917,0.25 3.47395833,0.32421875 3.8125,0.47265625 C4.15104167,0.62109375 4.42578125,0.841145833 4.63671875,1.1328125 C4.84765625,1.42447917 4.953125,1.78125 4.953125,2.203125 C4.953125,2.63541667 4.81640625,3.03385417 4.54296875,3.3984375 C4.26953125,3.76302083 3.97916667,4.08333333 3.671875,4.359375 C4.859375,4.79166667 5.453125,5.62760417 5.453125,6.8671875 Z" id="Path"></path><path d="M14.2482639,5.1640625 C14.2482639,5.54427083 14.2157118,5.9609375 14.1506076,6.4140625 C14.0855035,6.8671875 13.9800347,7.31640625 13.8342014,7.76171875 C13.6883681,8.20703125 13.4943576,8.61458333 13.2521701,8.984375 C13.0099826,9.35416667 12.7118056,9.65104167 12.3576389,9.875 C12.0034722,10.0989583 11.5842014,10.2109375 11.0998264,10.2109375 C10.6467014,10.2109375 10.2508681,10.1002604 9.91232639,9.87890625 C9.57378472,9.65755208 9.28472222,9.36588542 9.04513889,9.00390625 C8.80555556,8.64192708 8.61284722,8.2421875 8.46701389,7.8046875 C8.32118056,7.3671875 8.21440972,6.9296875 8.14670139,6.4921875 C8.07899306,6.0546875 8.04513889,5.65625 8.04513889,5.296875 C8.04513889,4.92708333 8.07899306,4.51822917 8.14670139,4.0703125 C8.21440972,3.62239583 8.32378472,3.17447917 8.47482639,2.7265625 C8.62586806,2.27864583 8.82248264,1.8671875 9.06467014,1.4921875 C9.30685764,1.1171875 9.60243056,0.81640625 9.95138889,0.58984375 C10.3003472,0.36328125 10.7092014,0.25 11.1779514,0.25 C11.6414931,0.25 12.0451389,0.359375 12.3888889,0.578125 C12.7326389,0.796875 13.0230035,1.08723958 13.2599826,1.44921875 C13.4969618,1.81119792 13.6883681,2.20963542 13.8342014,2.64453125 C13.9800347,3.07942708 14.0855035,3.51692708 14.1506076,3.95703125 C14.2157118,4.39713542 14.2482639,4.79947917 14.2482639,5.1640625 Z M12.8654514,4.9296875 C12.8654514,4.7109375 12.8576389,4.42708333 12.8420139,4.078125 C12.8263889,3.72916667 12.7899306,3.36067708 12.7326389,2.97265625 C12.6753472,2.58463542 12.5842014,2.21875 12.4592014,1.875 C12.3342014,1.53125 12.1662326,1.25130208 11.9552951,1.03515625 C11.7443576,0.819010417 11.4774306,0.7109375 11.1545139,0.7109375 C10.8263889,0.7109375 10.5555556,0.838541667 10.3420139,1.09375 C10.1284722,1.34895833 9.96050347,1.67578125 9.83810764,2.07421875 C9.71571181,2.47265625 9.62586806,2.89322917 9.56857639,3.3359375 C9.51128472,3.77864583 9.47482639,4.19270833 9.45920139,4.578125 C9.44357639,4.96354167 9.43576389,5.26302083 9.43576389,5.4765625 C9.43576389,5.6953125 9.44357639,5.98046875 9.45920139,6.33203125 C9.47482639,6.68359375 9.51258681,7.05598958 9.57248264,7.44921875 C9.63237847,7.84244792 9.72352431,8.21354167 9.84592014,8.5625 C9.96831597,8.91145833 10.1336806,9.19661458 10.3420139,9.41796875 C10.5503472,9.63932292 10.8159722,9.75 11.1388889,9.75 C11.4774306,9.75 11.7560764,9.62369792 11.9748264,9.37109375 C12.1935764,9.11848958 12.3641493,8.79296875 12.4865451,8.39453125 C12.608941,7.99609375 12.6961806,7.57552083 12.7482639,7.1328125 C12.8003472,6.69010417 12.8328993,6.27083333 12.8459201,5.875 C12.858941,5.47916667 12.8654514,5.1640625 12.8654514,4.9296875 Z" id="Shape"></path><path d="M28.0963542,9.4453125 L26.1354167,10.2578125 L25.8072917,10.2578125 L25.8072917,8.8671875 C25.6197917,9.0703125 25.4127604,9.27994792 25.1861979,9.49609375 C24.9596354,9.71223958 24.7148437,9.89322917 24.4518229,10.0390625 C24.1888021,10.1848958 23.90625,10.2578125 23.6041667,10.2578125 C23.1354167,10.2578125 22.78125,10.1263021 22.5416667,9.86328125 C22.3020833,9.60026042 22.140625,9.2734375 22.0572917,8.8828125 C21.9739583,8.4921875 21.9322917,8.109375 21.9322917,7.734375 L21.9322917,4.8359375 C21.9322917,4.4140625 21.8502604,4.14192708 21.6861979,4.01953125 C21.5221354,3.89713542 21.2395833,3.8359375 20.8385417,3.8359375 L20.8385417,3.5703125 L23.1276042,3.5703125 L23.1276042,7.890625 C23.1276042,8.13541667 23.1549479,8.37109375 23.2096354,8.59765625 C23.2643229,8.82421875 23.3697917,9.00911458 23.5260417,9.15234375 C23.6822917,9.29557292 23.90625,9.3671875 24.1979167,9.3671875 C24.5052083,9.3671875 24.7994792,9.265625 25.0807292,9.0625 C25.3619792,8.859375 25.6041667,8.65364583 25.8072917,8.4453125 L25.8072917,4.78125 C25.8072917,4.38541667 25.7239583,4.12890625 25.5572917,4.01171875 C25.390625,3.89453125 25.125,3.8359375 24.7604167,3.8359375 L24.7604167,3.5703125 L26.9791667,3.5703125 L26.9791667,8.3359375 C26.9791667,8.4296875 26.9869792,8.55338542 27.0026042,8.70703125 C27.0182292,8.86067708 27.0559896,8.99869792 27.1158854,9.12109375 C27.1757812,9.24348958 27.2760417,9.3046875 27.4166667,9.3046875 C27.625,9.3046875 27.8203125,9.26822917 28.0026042,9.1953125 L28.0963542,9.4453125 Z" id="Path"></path><path d="M36.1805556,10.0390625 L32.9383681,10.0390625 L32.9383681,9.765625 C33.2664931,9.765625 33.5047743,9.73177083 33.6532118,9.6640625 C33.8016493,9.59635417 33.8953993,9.47526042 33.9344618,9.30078125 C33.9735243,9.12630208 33.9930556,8.88541667 33.9930556,8.578125 L33.9930556,5.9296875 C33.9930556,5.68489583 33.9748264,5.43229167 33.9383681,5.171875 C33.9019097,4.91145833 33.812066,4.69140625 33.6688368,4.51171875 C33.5256076,4.33203125 33.2951389,4.2421875 32.9774306,4.2421875 C32.6388889,4.2421875 32.3289931,4.33854167 32.0477431,4.53125 C31.7664931,4.72395833 31.5190972,4.93489583 31.3055556,5.1640625 L31.3055556,8.578125 C31.3055556,8.88020833 31.3250868,9.1171875 31.3641493,9.2890625 C31.4032118,9.4609375 31.4969618,9.58333333 31.6453993,9.65625 C31.7938368,9.72916667 32.0295139,9.765625 32.3524306,9.765625 L32.3524306,10.0390625 L29.1336806,10.0390625 L29.1336806,9.765625 C29.4513889,9.765625 29.6779514,9.72395833 29.8133681,9.640625 C29.9487847,9.55729167 30.0334201,9.42708333 30.0672743,9.25 C30.1011285,9.07291667 30.1180556,8.84895833 30.1180556,8.578125 L30.1180556,5.59375 C30.1180556,5.27083333 30.0894097,4.97526042 30.0321181,4.70703125 C29.9748264,4.43880208 29.8368056,4.3046875 29.6180556,4.3046875 C29.5399306,4.3046875 29.4592014,4.31640625 29.3758681,4.33984375 C29.2925347,4.36328125 29.2118056,4.38802083 29.1336806,4.4140625 L29.0399306,4.1640625 L31.0164931,3.375 L31.3055556,3.375 L31.3055556,4.7421875 C31.5659722,4.41927083 31.8810764,4.11067708 32.2508681,3.81640625 C32.6206597,3.52213542 33.0269097,3.375 33.4696181,3.375 C33.9383681,3.375 34.2951389,3.49739583 34.5399306,3.7421875 C34.7847222,3.98697917 34.9500868,4.29557292 35.0360243,4.66796875 C35.1219618,5.04036458 35.1649306,5.421875 35.1649306,5.8125 L35.1649306,8.578125 C35.1649306,8.98958333 35.2170139,9.29036458 35.3211806,9.48046875 C35.4253472,9.67057292 35.7118056,9.765625 36.1805556,9.765625 L36.1805556,10.0390625 Z" id="Path"></path><path d="M44.3819444,9.4453125 L42.4210069,10.2578125 L42.1163194,10.2578125 L42.1163194,9.3046875 C41.8559028,9.57552083 41.5681424,9.80208333 41.2530382,9.984375 C40.937934,10.1666667 40.5928819,10.2578125 40.2178819,10.2578125 C39.6553819,10.2578125 39.1762153,10.0976562 38.7803819,9.77734375 C38.3845486,9.45703125 38.0824653,9.05338542 37.8741319,8.56640625 C37.6657986,8.07942708 37.5616319,7.5859375 37.5616319,7.0859375 C37.5616319,6.63802083 37.6332465,6.1953125 37.7764757,5.7578125 C37.9197049,5.3203125 38.1280382,4.921875 38.4014757,4.5625 C38.6749132,4.203125 39.0056424,3.91536458 39.3936632,3.69921875 C39.781684,3.48307292 40.2204861,3.375 40.7100694,3.375 C40.9704861,3.375 41.2217882,3.41666667 41.4639757,3.5 C41.7061632,3.58333333 41.9236111,3.72135417 42.1163194,3.9140625 L42.1163194,1.8203125 C42.1163194,1.54427083 42.078559,1.32421875 42.0030382,1.16015625 C41.9275174,0.99609375 41.7986111,0.9140625 41.6163194,0.9140625 C41.5329861,0.9140625 41.4509549,0.923177083 41.3702257,0.94140625 C41.2894965,0.959635417 41.2048611,0.981770833 41.1163194,1.0078125 L41.0225694,0.765625 L42.9835069,0 L43.2881944,0 L43.2881944,8.0546875 C43.2881944,8.41927083 43.3155382,8.71875 43.3702257,8.953125 C43.4249132,9.1875 43.5694444,9.3046875 43.8038194,9.3046875 C43.8819444,9.3046875 43.9639757,9.29296875 44.0499132,9.26953125 C44.1358507,9.24609375 44.2204861,9.22135417 44.3038194,9.1953125 L44.3819444,9.4453125 Z M42.1163194,8.8125 L42.1163194,5.4765625 C42.1163194,5.20572917 42.0512153,4.94140625 41.9210069,4.68359375 C41.7907986,4.42578125 41.6137153,4.21354167 41.3897569,4.046875 C41.1657986,3.88020833 40.9079861,3.796875 40.6163194,3.796875 C40.2829861,3.796875 40.0030382,3.88541667 39.7764757,4.0625 C39.5499132,4.23958333 39.3702257,4.46744792 39.2374132,4.74609375 C39.1046007,5.02473958 39.0095486,5.3203125 38.9522569,5.6328125 C38.8949653,5.9453125 38.8663194,6.23697917 38.8663194,6.5078125 C38.8663194,6.8046875 38.9001736,7.12369792 38.9678819,7.46484375 C39.0355903,7.80598958 39.1475694,8.12890625 39.3038194,8.43359375 C39.4600694,8.73828125 39.6644965,8.98697917 39.9171007,9.1796875 C40.1697049,9.37239583 40.4782986,9.46875 40.8428819,9.46875 C41.0980903,9.46875 41.3337674,9.40494792 41.5499132,9.27734375 C41.766059,9.14973958 41.9548611,8.99479167 42.1163194,8.8125 Z" id="Shape"></path><path d="M51.0052083,7.5234375 L51.2161458,7.6796875 C51.1536458,8.12239583 51.0026042,8.54036458 50.7630208,8.93359375 C50.5234375,9.32682292 50.2161458,9.64583333 49.8411458,9.890625 C49.4661458,10.1354167 49.0416667,10.2578125 48.5677083,10.2578125 C47.9479167,10.2578125 47.4283854,10.0924479 47.0091146,9.76171875 C46.5898437,9.43098958 46.2734375,9.00651042 46.0598958,8.48828125 C45.8463542,7.97005208 45.7395833,7.4296875 45.7395833,6.8671875 C45.7395833,6.24739583 45.8489583,5.671875 46.0677083,5.140625 C46.2864583,4.609375 46.6171875,4.18229167 47.0598958,3.859375 C47.5026042,3.53645833 48.0625,3.375 48.7395833,3.375 C49.5208333,3.375 50.1289062,3.62369792 50.5638021,4.12109375 C50.9986979,4.61848958 51.2161458,5.24739583 51.2161458,6.0078125 L46.7473958,6.0078125 C46.7473958,6.47135417 46.8307292,6.94140625 46.9973958,7.41796875 C47.1640625,7.89453125 47.421875,8.29166667 47.7708333,8.609375 C48.1197917,8.92708333 48.5651042,9.0859375 49.1067708,9.0859375 C49.6015625,9.0859375 49.9986979,8.93619792 50.2981771,8.63671875 C50.5976562,8.33723958 50.8333333,7.96614583 51.0052083,7.5234375 Z M46.7473958,5.6015625 L49.7395833,5.6015625 C49.7395833,5.31510417 49.6914062,5.04036458 49.5950521,4.77734375 C49.4986979,4.51432292 49.3476562,4.29947917 49.1419271,4.1328125 C48.9361979,3.96614583 48.6692708,3.8828125 48.3411458,3.8828125 C47.8567708,3.8828125 47.4791667,4.05989583 47.2083333,4.4140625 C46.9375,4.76822917 46.7838542,5.1640625 46.7473958,5.6015625 Z" id="Shape"></path><path d="M57.4565972,4.1640625 C57.4565972,4.3359375 57.3927951,4.48828125 57.265191,4.62109375 C57.1375868,4.75390625 56.9852431,4.8203125 56.8081597,4.8203125 C56.6519097,4.8203125 56.5190972,4.77864583 56.4097222,4.6953125 C56.3003472,4.61197917 56.2000868,4.52864583 56.108941,4.4453125 C56.0177951,4.36197917 55.9175347,4.3203125 55.8081597,4.3203125 C55.6727431,4.3203125 55.5203993,4.42578125 55.3511285,4.63671875 C55.1818576,4.84765625 55.0217014,5.10416667 54.8706597,5.40625 L54.8706597,8.5390625 C54.8706597,8.95052083 54.9487847,9.2578125 55.1050347,9.4609375 C55.2612847,9.6640625 55.5607639,9.765625 56.0034722,9.765625 L56.0034722,10.0390625 L52.6597222,10.0390625 L52.6597222,9.765625 C52.9826389,9.765625 53.2157118,9.72916667 53.358941,9.65625 C53.5021701,9.58333333 53.5920139,9.4609375 53.6284722,9.2890625 C53.6649306,9.1171875 53.6831597,8.88020833 53.6831597,8.578125 L53.6831597,5.78125 C53.6831597,5.33333333 53.6545139,4.97786458 53.5972222,4.71484375 C53.5399306,4.45182292 53.3732639,4.3203125 53.0972222,4.3203125 C52.9670139,4.3203125 52.8211806,4.3515625 52.6597222,4.4140625 L52.5815972,4.1640625 L54.5815972,3.375 L54.8706597,3.375 L54.8706597,4.8359375 C54.9800347,4.63802083 55.1154514,4.42578125 55.2769097,4.19921875 C55.4383681,3.97265625 55.6258681,3.77864583 55.8394097,3.6171875 C56.0529514,3.45572917 56.2873264,3.375 56.5425347,3.375 C56.7717014,3.375 56.9813368,3.44401042 57.171441,3.58203125 C57.3615451,3.72005208 57.4565972,3.9140625 57.4565972,4.1640625 Z" id="Path"></path><path d="M69.6015625,6.8671875 C69.6015625,7.60677083 69.4283854,8.22395833 69.0820312,8.71875 C68.7356771,9.21354167 68.2760417,9.5859375 67.703125,9.8359375 C67.1302083,10.0859375 66.4973958,10.2109375 65.8046875,10.2109375 C65.6328125,10.2109375 65.4166667,10.1979167 65.15625,10.171875 C64.8958333,10.1458333 64.6627604,10.078125 64.4570312,9.96875 C64.2513021,9.859375 64.1484375,9.68489583 64.1484375,9.4453125 C64.1484375,9.29947917 64.2083333,9.1796875 64.328125,9.0859375 C64.4479167,8.9921875 64.5755208,8.9453125 64.7109375,8.9453125 C64.9140625,8.9453125 65.1184896,9 65.3242188,9.109375 C65.5299479,9.21875 65.7486979,9.328125 65.9804688,9.4375 C66.2122396,9.546875 66.4713542,9.6015625 66.7578125,9.6015625 C67.0963542,9.6015625 67.3997396,9.51432292 67.6679688,9.33984375 C67.9361979,9.16536458 68.1484375,8.93619792 68.3046875,8.65234375 C68.4609375,8.36848958 68.5390625,8.0625 68.5390625,7.734375 C68.5390625,7.171875 68.4153646,6.71223958 68.1679688,6.35546875 C67.9205729,5.99869792 67.5872396,5.734375 67.1679688,5.5625 C66.7486979,5.390625 66.28125,5.30208333 65.765625,5.296875 L65.765625,5.0703125 C66.1510417,5.0234375 66.5078125,4.89973958 66.8359375,4.69921875 C67.1640625,4.49869792 67.4283854,4.23828125 67.6289062,3.91796875 C67.8294271,3.59765625 67.9296875,3.23697917 67.9296875,2.8359375 C67.9296875,2.37760417 67.7877604,1.99479167 67.5039062,1.6875 C67.2200521,1.38020833 66.8385417,1.2265625 66.359375,1.2265625 C65.9583333,1.2265625 65.6067708,1.33723958 65.3046875,1.55859375 C65.0026042,1.77994792 64.7447917,2.05989583 64.53125,2.3984375 L64.2890625,2.2890625 C64.4713542,1.90364583 64.6731771,1.55729167 64.8945312,1.25 C65.1158854,0.942708333 65.3854167,0.69921875 65.703125,0.51953125 C66.0208333,0.33984375 66.4114583,0.25 66.875,0.25 C67.2604167,0.25 67.6223958,0.32421875 67.9609375,0.47265625 C68.2994792,0.62109375 68.5742188,0.841145833 68.7851562,1.1328125 C68.9960938,1.42447917 69.1015625,1.78125 69.1015625,2.203125 C69.1015625,2.63541667 68.9648438,3.03385417 68.6914062,3.3984375 C68.4179688,3.76302083 68.1276042,4.08333333 67.8203125,4.359375 C69.0078125,4.79166667 69.6015625,5.62760417 69.6015625,6.8671875 Z" id="Path"></path><path d="M78.3967014,5.1640625 C78.3967014,5.54427083 78.3641493,5.9609375 78.2990451,6.4140625 C78.233941,6.8671875 78.1284722,7.31640625 77.9826389,7.76171875 C77.8368056,8.20703125 77.6427951,8.61458333 77.4006076,8.984375 C77.1584201,9.35416667 76.8602431,9.65104167 76.5060764,9.875 C76.1519097,10.0989583 75.7326389,10.2109375 75.2482639,10.2109375 C74.7951389,10.2109375 74.3993056,10.1002604 74.0607639,9.87890625 C73.7222222,9.65755208 73.4331597,9.36588542 73.1935764,9.00390625 C72.9539931,8.64192708 72.7612847,8.2421875 72.6154514,7.8046875 C72.4696181,7.3671875 72.3628472,6.9296875 72.2951389,6.4921875 C72.2274306,6.0546875 72.1935764,5.65625 72.1935764,5.296875 C72.1935764,4.92708333 72.2274306,4.51822917 72.2951389,4.0703125 C72.3628472,3.62239583 72.4722222,3.17447917 72.6232639,2.7265625 C72.7743056,2.27864583 72.9709201,1.8671875 73.2131076,1.4921875 C73.4552951,1.1171875 73.7508681,0.81640625 74.0998264,0.58984375 C74.4487847,0.36328125 74.8576389,0.25 75.3263889,0.25 C75.7899306,0.25 76.1935764,0.359375 76.5373264,0.578125 C76.8810764,0.796875 77.171441,1.08723958 77.4084201,1.44921875 C77.6453993,1.81119792 77.8368056,2.20963542 77.9826389,2.64453125 C78.1284722,3.07942708 78.233941,3.51692708 78.2990451,3.95703125 C78.3641493,4.39713542 78.3967014,4.79947917 78.3967014,5.1640625 Z M77.0138889,4.9296875 C77.0138889,4.7109375 77.0060764,4.42708333 76.9904514,4.078125 C76.9748264,3.72916667 76.9383681,3.36067708 76.8810764,2.97265625 C76.8237847,2.58463542 76.7326389,2.21875 76.6076389,1.875 C76.4826389,1.53125 76.3146701,1.25130208 76.1037326,1.03515625 C75.8927951,0.819010417 75.6258681,0.7109375 75.3029514,0.7109375 C74.9748264,0.7109375 74.7039931,0.838541667 74.4904514,1.09375 C74.2769097,1.34895833 74.108941,1.67578125 73.9865451,2.07421875 C73.8641493,2.47265625 73.7743056,2.89322917 73.7170139,3.3359375 C73.6597222,3.77864583 73.6232639,4.19270833 73.6076389,4.578125 C73.5920139,4.96354167 73.5842014,5.26302083 73.5842014,5.4765625 C73.5842014,5.6953125 73.5920139,5.98046875 73.6076389,6.33203125 C73.6232639,6.68359375 73.6610243,7.05598958 73.7209201,7.44921875 C73.780816,7.84244792 73.8719618,8.21354167 73.9943576,8.5625 C74.1167535,8.91145833 74.2821181,9.19661458 74.4904514,9.41796875 C74.6987847,9.63932292 74.9644097,9.75 75.2873264,9.75 C75.6258681,9.75 75.9045139,9.62369792 76.1232639,9.37109375 C76.3420139,9.11848958 76.5125868,8.79296875 76.6349826,8.39453125 C76.7573785,7.99609375 76.8446181,7.57552083 76.8967014,7.1328125 C76.9487847,6.69010417 76.9813368,6.27083333 76.9943576,5.875 C77.0073785,5.47916667 77.0138889,5.1640625 77.0138889,4.9296875 Z" id="Shape"></path></g></g></g></g></g></svg>