<svg xmlns="http://www.w3.org/2000/svg" xmlns:xlink="http://www.w3.org/1999/xlink" width="171px" height="48px" viewBox="0 0 171 48"><title>hotdinners</title><defs><polygon id="path-1" points="0 0 13 0 13 22 0 22"></polygon></defs><g id="Page-1" stroke="none" stroke-width="1" fill="none" fill-rule="evenodd"><g id="Desktop-HD-Copy" transform="translate(-1119.000000, -3394.000000)"><g id="Footer" transform="translate(0.000000, 3287.000000)"><g id="hotdinners" transform="translate(1119.000000, 107.000000)"><g id="Group-26"><path d="M105.288372,1.08739668 L110.641768,1.08739668 C112.453082,3.58318848 114.2541,6.065879 116.347617,8.9511358 C116.775162,6.16473404 116.369418,3.76243766 116.656467,1.24580294 C118.715466,0.809887976 120.778704,1.09394731 123,1.05881209 L123,21.9958314 L117.602395,21.9958314 C115.884343,19.6798843 114.017315,17.1638451 111.756656,14.1172045 L111.756656,22 L105.465203,22 C104.953481,19.8376951 104.819647,5.46560267 105.288372,1.08739668" id="Fill-1" fill="#FFFFFF"></path><path d="M96.8431991,8.53990687 L96.8431991,1.31853973 C98.9281158,0.74030469 100.89526,1.15486576 103,1.01448845 L103,22 L97.7836271,22 C96.2216887,19.822061 94.4072982,17.2922827 92.2891488,14.3401778 L92.2891488,21.9988053 L86,21.9988053 L86,1.17218892 L91.1324165,1.17218892 C92.8016325,3.57652367 94.5722958,6.12601452 96.3429591,8.67610273 C96.5097057,8.63070411 96.6764524,8.58530549 96.8431991,8.53990687" id="Fill-3" fill="#FFFFFF"></path><path d="M63.5423055,15.8387446 C65.8059408,16.4144153 67.0459623,15.2523137 68.1530391,13.6293168 L68.1530391,9.69168121 C66.9571338,8.02205679 65.6646499,6.96576378 63.4308228,7.16901201 C63.4308228,9.58109026 63.4236688,11.8520903 63.4361883,14.1224926 C63.4391691,14.6969678 63.5053433,15.2708451 63.5423055,15.8387446 M57,21.9565163 L57,1.12715949 C61.5761561,1.03091548 66.2184864,0.436713303 70.4518481,3.00421667 C71.435519,3.60081001 72.3810353,4.43352996 73.0350274,5.37325412 C75.5323591,8.96237874 75.4888391,12.9807158 73.8058677,16.7139075 C72.2796874,20.0985884 69.0812667,21.7305521 65.3677601,21.929018 C62.7100603,22.070694 60.0386487,21.9565163 57,21.9565163" id="Fill-5" fill="#FFFFFF"></path><path d="M149.317113,10.4542154 C149.398478,7.21162516 149.20228,6.98935082 146.524176,7.08800735 C146.528215,8.56488359 146.134088,10.0637495 146.899837,11.7022798 C147.788499,11.2428733 148.527704,10.8619165 149.317113,10.4542154 M153.323594,15.2337078 C154.570029,17.5271748 155.727021,19.6566105 157,22 L149.631607,22 C148.746985,20.5599714 147.742335,18.9226297 146.575533,17.0226002 C146.482628,18.8156528 146.403571,20.3466118 146.318745,21.9797932 L140.433379,21.9797932 C139.987894,19.89612 139.841899,7.5902047 140.204866,1.38613586 C141.88813,0.997452934 147.574413,0.859571531 149.017046,1.17218195 C155.978039,2.68055696 158.18469,9.59780548 153.323594,15.2337078" id="Fill-7" fill="#FFFFFF"></path><path d="M10.5570838,1.08778065 L16.5797506,1.08778065 C17.0434023,3.33433806 17.1575134,17.3151354 16.7491156,22 L10.4850136,22 L10.4850136,14.6645122 C9.08865341,14.0838189 7.86766403,14.1636642 6.37581079,14.6288238 L6.37581079,21.9770142 L0,21.9770142 L0,1.25533488 C1.94529495,0.795619306 3.9104092,1.11621043 6.14518613,1.02366243 C6.45809094,3.34885539 6.14038145,5.64561858 6.36920435,8.09965288 L10.3012346,8.09965288 C10.6345593,5.74482036 10.2147504,3.34159672 10.5570838,1.08778065" id="Fill-9" fill="#FFFFFF"></path><path d="M36.4060754,11.1494155 C35.8663325,6.45112569 32.3080053,3.13250188 27.5195945,3.98521215 C24.1010221,4.59420537 21.7071179,7.92959595 21.9787965,11.7356539 C22.1938503,14.7404994 24.3371597,17.1291661 27.1045467,17.2040177 C26.538901,16.0908236 25.7569967,15.114159 25.5708577,14.0356961 C25.3630326,12.8320812 25.6955527,11.5356502 25.7931402,10.2799385 C25.9027754,10.2817349 26.0118083,10.2841302 26.1214436,10.2859266 C26.2124047,11.2913343 26.3039682,12.296742 26.3949294,13.3021497 C26.4696259,13.297958 26.5443225,13.2937663 26.619019,13.2889758 L26.619019,7.93019476 C27.0828606,8.0170227 27.4153807,8.0792993 27.755732,8.14337233 C27.4792342,9.94520182 27.2924929,11.600322 28.0774091,13.2488553 L28.0774091,9.75118628 C28.1822252,9.74699459 28.2870414,9.74220408 28.3912551,9.73801239 C28.6038994,11.1488167 28.8159412,12.5596211 28.9906348,13.7225167 C28.9852133,15.3584749 26.7762433,15.8914188 27.5436902,17.5980369 C29.5568829,18.3142178 29.5568829,18.3142178 31.5050173,17.3136006 C32.4477602,15.3051805 30.5592625,14.4351046 29.923137,13.2075372 C29.8803672,11.1727693 29.789406,9.26494981 31.829104,8.0792993 C33.6284477,9.11584527 33.5429081,10.92007 33.9206077,12.1512303 C33.8453087,14.1237217 31.2502057,14.9411019 32.4911324,17.0495239 C35.2723744,16.0039957 35.6362189,13.4356851 36.4060754,11.1494155 M18,11.0338446 C18.2777025,7.23317598 19.7499476,4.17743125 22.7558817,1.99056475 C24.8401566,0.474369244 27.2605661,-0.172349217 29.8189232,0.0390319097 C36.763896,0.613293951 40.0156059,6.38645384 40,10.9050997 C39.97886,16.9938342 35.4241771,21.355591 30.2616811,21.9226672 C23.9022329,22.6208837 19.4451375,18.5591324 18,11.0338446" id="Fill-11" fill="#FFFFFF"></path><path d="M136.49142,1 L136.49142,6.02732193 C134.926587,6.69069508 133.264168,6.03995189 131.496657,6.47538448 C131.414662,7.02869662 131.320541,7.66199845 131.213139,8.38611565 C132.878445,9.10902999 134.541441,8.47151817 136.28701,8.89131369 C136.787064,10.4435948 136.442338,12.0999227 136.496617,13.9974225 L131.413507,13.9974225 C131.358074,14.877309 131.317654,15.5172266 131.260488,16.4235759 L136.46659,16.4235759 C137.313679,18.3517484 136.901395,20.0982902 136.888114,22 L130.826839,22 L125,22 L125,1 L136.49142,1 Z" id="Fill-13" fill="#FFFFFF"></path><g id="Group-17" transform="translate(158.000000, 1.000000)"><mask id="mask-2" fill="white"><use xlink:href="#path-1"></use></mask><g id="Clip-16"></g><path d="M0.145173386,21.2996185 L0.145173386,15.315087 C2.0031715,14.6393752 4.16243492,16.918022 5.94775424,14.7115795 C5.33936243,13.303596 4.07100031,12.5358239 3.01071054,11.5658797 C1.30041448,10.0008519 -0.0834131321,8.26313552 0.00391864029,5.69506992 C0.105903395,2.71604163 2.14794296,0.302613532 5.04513055,0.0727632369 C6.87675329,-0.0728487299 8.72771797,0.0450849292 10.5786827,0.0450849292 C11.2925759,2.12336482 11.1050178,3.95374335 10.8066831,5.84910572 C9.68895359,6.0217943 8.69430917,6.1758301 7.5367236,6.35453569 C8.00327454,7.83953707 9.14034594,8.35820449 9.96267129,9.12898519 C11.8452864,10.8943799 13.1054429,12.9106844 12.9934941,15.6472267 C12.8786147,18.4493545 11.4273834,20.8128413 8.81387751,21.5138245 C5.97940468,22.2737746 3.06697799,22.0974758 0.145173386,21.2996185" id="Fill-15" fill="#FFFFFF" mask="url(#mask-2)"></path></g><path d="M50.1561252,22 L44.0056391,22 C43.5512663,19.4661844 43.8537966,16.8786889 43.7995259,14.3117002 C43.7464099,11.8140734 43.7879789,9.31403399 43.7879789,6.58359287 C42.5085762,6.46597944 41.316353,6.35681004 40,6.23557773 L40,1.49304216 C42.0276455,0.910403299 50.7686912,0.824153446 53.7229799,1.34165256 C53.8072727,1.58652976 53.9764356,1.85854853 53.9827864,2.13478931 C54.0116538,3.42431507 53.9954881,4.71504712 53.9954881,6.21326134 C52.7726654,6.31639927 51.6653124,6.40988687 50.3916831,6.51784998 C49.9003601,9.04985612 50.2277163,11.6331297 50.1688269,14.1904679 C50.1110921,16.6856822 50.1561252,19.183309 50.1561252,22" id="Fill-18" fill="#FFFFFF"></path><path d="M76,1 L82.4837152,1 C83.024223,3.21401284 83.1835806,15.301828 82.7530772,21.789916 C80.578559,22.1133919 78.3671745,22.0049676 76,21.851616 L76,1 Z" id="Fill-20" fill="#FFFFFF"></path><path d="M25.0242424,8 C25.4267943,6.50013058 26.6255183,6.15657411 27.8899522,6.03747453 C28.9138756,5.94062432 29.953748,6.01784273 31,6.43076489 C29.9288676,6.51452723 28.8577352,6.59828958 27.8733652,6.67550798 C26.8647528,7.1322745 25.9320574,7.55435817 25,7.97644184 L25.0242424,8 Z" id="Fill-22" fill="#FFFFFF"></path><path d="M25.9756339,7 C25.5716704,7.93428662 25.168348,8.86857323 24.6842329,9.98769845 C24.6329359,10.822311 24.5694559,11.8587951 24.4989226,13 C23.6243094,9.44264536 23.7672997,8.89317632 26,7.02271055 L25.9756339,7 Z" id="Fill-24" fill="#FFFFFF"></path></g><g id="Best-New-Restaurant" transform="translate(15.555556, 37.421875)" fill="#FFFFFF" fill-rule="nonzero"><path d="M8.6015625,6.9609375 C8.6015625,7.52864583 8.47395833,7.98567708 8.21875,8.33203125 C7.96354167,8.67838542 7.63020833,8.94140625 7.21875,9.12109375 C6.80729167,9.30078125 6.36328125,9.421875 5.88671875,9.484375 C5.41015625,9.546875 4.953125,9.578125 4.515625,9.578125 L0,9.578125 L0,9.3046875 C0.401041667,9.3046875 0.697916667,9.26692708 0.890625,9.19140625 C1.08333333,9.11588542 1.20963542,8.9765625 1.26953125,8.7734375 C1.32942708,8.5703125 1.359375,8.27604167 1.359375,7.890625 L1.359375,1.6875 C1.359375,1.28645833 1.33203125,0.983072917 1.27734375,0.77734375 C1.22265625,0.571614583 1.09895833,0.432291667 0.90625,0.359375 C0.713541667,0.286458333 0.411458333,0.25 0,0.25 L0,0 L4.125,0 C4.5625,0 5.01692708,0.03125 5.48828125,0.09375 C5.95963542,0.15625 6.39973958,0.274739583 6.80859375,0.44921875 C7.21744792,0.623697917 7.54817708,0.880208333 7.80078125,1.21875 C8.05338542,1.55729167 8.1796875,2.00520833 8.1796875,2.5625 C8.1796875,3.09895833 8.01041667,3.54817708 7.671875,3.91015625 C7.33333333,4.27213542 6.921875,4.53125 6.4375,4.6875 C7.07291667,4.796875 7.59244792,5.03125 7.99609375,5.390625 C8.39973958,5.75 8.6015625,6.2734375 8.6015625,6.9609375 Z M6.6796875,2.4921875 C6.6796875,1.9921875 6.54557292,1.59505208 6.27734375,1.30078125 C6.00911458,1.00651042 5.67057292,0.795572917 5.26171875,0.66796875 C4.85286458,0.540364583 4.4375,0.4765625 4.015625,0.4765625 C3.796875,0.4765625 3.57942708,0.486979167 3.36328125,0.5078125 C3.14713542,0.528645833 2.93229167,0.565104167 2.71875,0.6171875 L2.71875,4.296875 C2.94791667,4.34375 3.17578125,4.37109375 3.40234375,4.37890625 C3.62890625,4.38671875 3.8515625,4.390625 4.0703125,4.390625 C4.51302083,4.390625 4.93229167,4.33984375 5.328125,4.23828125 C5.72395833,4.13671875 6.04817708,3.94791667 6.30078125,3.671875 C6.55338542,3.39583333 6.6796875,3.00260417 6.6796875,2.4921875 Z M6.96875,7.0625 C6.96875,6.51041667 6.81640625,6.07682292 6.51171875,5.76171875 C6.20703125,5.44661458 5.82552083,5.22265625 5.3671875,5.08984375 C4.90885417,4.95703125 4.4453125,4.890625 3.9765625,4.890625 C3.77864583,4.890625 3.57161458,4.89322917 3.35546875,4.8984375 C3.13932292,4.90364583 2.92708333,4.91927083 2.71875,4.9453125 L2.71875,8.8828125 C2.99479167,8.9453125 3.26692708,8.99348958 3.53515625,9.02734375 C3.80338542,9.06119792 4.078125,9.078125 4.359375,9.078125 C4.78125,9.078125 5.19270833,9.01302083 5.59375,8.8828125 C5.99479167,8.75260417 6.32421875,8.5390625 6.58203125,8.2421875 C6.83984375,7.9453125 6.96875,7.55208333 6.96875,7.0625 Z" id="Shape"></path><path d="M15.8498264,7.0625 L16.0607639,7.21875 C15.9982639,7.66145833 15.8472222,8.07942708 15.6076389,8.47265625 C15.3680556,8.86588542 15.0607639,9.18489583 14.6857639,9.4296875 C14.3107639,9.67447917 13.8862847,9.796875 13.4123264,9.796875 C12.7925347,9.796875 12.2730035,9.63151042 11.8537326,9.30078125 C11.4344618,8.97005208 11.1180556,8.54557292 10.9045139,8.02734375 C10.6909722,7.50911458 10.5842014,6.96875 10.5842014,6.40625 C10.5842014,5.78645833 10.6935764,5.2109375 10.9123264,4.6796875 C11.1310764,4.1484375 11.4618056,3.72135417 11.9045139,3.3984375 C12.3472222,3.07552083 12.9071181,2.9140625 13.5842014,2.9140625 C14.3654514,2.9140625 14.9735243,3.16276042 15.4084201,3.66015625 C15.843316,4.15755208 16.0607639,4.78645833 16.0607639,5.546875 L11.5920139,5.546875 C11.5920139,6.01041667 11.6753472,6.48046875 11.8420139,6.95703125 C12.0086806,7.43359375 12.2664931,7.83072917 12.6154514,8.1484375 C12.9644097,8.46614583 13.4097222,8.625 13.9513889,8.625 C14.4461806,8.625 14.843316,8.47526042 15.1427951,8.17578125 C15.4422743,7.87630208 15.6779514,7.50520833 15.8498264,7.0625 Z M11.5920139,5.140625 L14.5842014,5.140625 C14.5842014,4.85416667 14.5360243,4.57942708 14.4396701,4.31640625 C14.343316,4.05338542 14.1922743,3.83854167 13.9865451,3.671875 C13.780816,3.50520833 13.5138889,3.421875 13.1857639,3.421875 C12.7013889,3.421875 12.3237847,3.59895833 12.0529514,3.953125 C11.7821181,4.30729167 11.6284722,4.703125 11.5920139,5.140625 Z" id="Shape"></path><path d="M22.4965278,7.9453125 C22.4965278,8.31510417 22.3871528,8.63932292 22.1684028,8.91796875 C21.9496528,9.19661458 21.6736111,9.41276042 21.3402778,9.56640625 C21.0069444,9.72005208 20.6684028,9.796875 20.3246528,9.796875 C20.1215278,9.796875 19.9157986,9.75911458 19.7074653,9.68359375 C19.4991319,9.60807292 19.2999132,9.53255208 19.109809,9.45703125 C18.9197049,9.38151042 18.7491319,9.34375 18.5980903,9.34375 C18.5460069,9.34375 18.4978299,9.38802083 18.453559,9.4765625 C18.4092882,9.56510417 18.3741319,9.63020833 18.3480903,9.671875 L18.1059028,9.671875 L18.1059028,7.3671875 L18.3480903,7.3671875 C18.4157986,7.70572917 18.5329861,8.02604167 18.6996528,8.328125 C18.8663194,8.63020833 19.0850694,8.875 19.3559028,9.0625 C19.6267361,9.25 19.9496528,9.34375 20.3246528,9.34375 C20.6163194,9.34375 20.875434,9.26171875 21.1019965,9.09765625 C21.328559,8.93359375 21.4418403,8.69791667 21.4418403,8.390625 C21.4418403,8.03125 21.328559,7.73697917 21.1019965,7.5078125 C20.875434,7.27864583 20.5954861,7.07942708 20.2621528,6.91015625 C19.9288194,6.74088542 19.5954861,6.56380208 19.2621528,6.37890625 C18.9288194,6.19401042 18.6488715,5.96614583 18.422309,5.6953125 C18.1957465,5.42447917 18.0824653,5.07552083 18.0824653,4.6484375 C18.0824653,4.24739583 18.1827257,3.91927083 18.3832465,3.6640625 C18.5837674,3.40885417 18.844184,3.22005208 19.1644965,3.09765625 C19.484809,2.97526042 19.8220486,2.9140625 20.1762153,2.9140625 C20.4210069,2.9140625 20.6605903,2.95572917 20.8949653,3.0390625 C21.1293403,3.12239583 21.3637153,3.1640625 21.5980903,3.1640625 C21.7282986,3.1640625 21.8298611,3.08072917 21.9027778,2.9140625 L22.1527778,2.9140625 L22.1527778,5.125 L21.9027778,5.125 C21.8350694,4.81770833 21.7309028,4.52604167 21.5902778,4.25 C21.4496528,3.97395833 21.2634549,3.74869792 21.031684,3.57421875 C20.7999132,3.39973958 20.5069444,3.3125 20.1527778,3.3125 C19.9704861,3.3125 19.7829861,3.3359375 19.5902778,3.3828125 C19.3975694,3.4296875 19.2361111,3.515625 19.1059028,3.640625 C18.9756944,3.765625 18.9105903,3.94791667 18.9105903,4.1875 C18.9105903,4.5 18.9965278,4.75651042 19.1684028,4.95703125 C19.3402778,5.15755208 19.562934,5.32942708 19.8363715,5.47265625 C20.109809,5.61588542 20.3988715,5.75390625 20.703559,5.88671875 C21.0082465,6.01953125 21.297309,6.17057292 21.5707465,6.33984375 C21.844184,6.50911458 22.0668403,6.72005208 22.2387153,6.97265625 C22.4105903,7.22526042 22.4965278,7.54947917 22.4965278,7.9453125 Z" id="Path"></path><path d="M27.6588542,8.390625 L27.9322917,8.390625 C27.8333333,8.74479167 27.6380208,9.06770833 27.3463542,9.359375 C27.0546875,9.65104167 26.7135417,9.796875 26.3229167,9.796875 C25.984375,9.796875 25.7213542,9.71484375 25.5338542,9.55078125 C25.3463542,9.38671875 25.2161458,9.17317708 25.1432292,8.91015625 C25.0703125,8.64713542 25.0338542,8.36979167 25.0338542,8.078125 L25.0338542,3.5859375 L24.0104167,3.5859375 L24.0104167,3.375 C24.3385417,3.25 24.6289062,3.05598958 24.8815104,2.79296875 C25.1341146,2.52994792 25.3541667,2.23567708 25.5416667,1.91015625 C25.7291667,1.58463542 25.8854167,1.27083333 26.0104167,0.96875 L26.2291667,0.96875 L26.2291667,3.109375 L27.7447917,3.109375 L27.7447917,3.5859375 L26.2291667,3.5859375 L26.2291667,7.90625 C26.2291667,8.046875 26.2447917,8.20052083 26.2760417,8.3671875 C26.3072917,8.53385417 26.3671875,8.67838542 26.4557292,8.80078125 C26.5442708,8.92317708 26.6770833,8.984375 26.8541667,8.984375 C27.0677083,8.984375 27.2369792,8.9296875 27.3619792,8.8203125 C27.4869792,8.7109375 27.5859375,8.56770833 27.6588542,8.390625 Z" id="Path"></path><path d="M44.2647569,0 L44.2647569,0.25 C43.8637153,0.25 43.5655382,0.286458333 43.3702257,0.359375 C43.1749132,0.432291667 43.047309,0.569010417 42.9874132,0.76953125 C42.9275174,0.970052083 42.8975694,1.26302083 42.8975694,1.6484375 L42.8975694,9.7265625 L42.6475694,9.7265625 L36.3116319,2.015625 L36.3116319,7.90625 C36.3116319,8.30208333 36.3402778,8.60026042 36.3975694,8.80078125 C36.4548611,9.00130208 36.5811632,9.13541667 36.7764757,9.203125 C36.9717882,9.27083333 37.2699653,9.3046875 37.6710069,9.3046875 L37.6710069,9.578125 L34.3350694,9.578125 L34.3350694,9.3046875 C34.7309028,9.3046875 35.0251736,9.26822917 35.2178819,9.1953125 C35.4105903,9.12239583 35.5381944,8.98567708 35.6006944,8.78515625 C35.6631944,8.58463542 35.6944444,8.29166667 35.6944444,7.90625 L35.6944444,1.2421875 C35.4548611,0.919270833 35.234809,0.673177083 35.0342882,0.50390625 C34.8337674,0.334635417 34.5173611,0.25 34.0850694,0.25 L34.0850694,0 L36.4288194,0 L42.2881944,7.1796875 L42.2881944,1.6484375 C42.2881944,1.26302083 42.2569444,0.970052083 42.1944444,0.76953125 C42.1319444,0.569010417 42.0030382,0.432291667 41.8077257,0.359375 C41.6124132,0.286458333 41.3142361,0.25 40.9131944,0.25 L40.9131944,0 L44.2647569,0 Z" id="Path"></path><path d="M51.1380208,7.0625 L51.3489583,7.21875 C51.2864583,7.66145833 51.1354167,8.07942708 50.8958333,8.47265625 C50.65625,8.86588542 50.3489583,9.18489583 49.9739583,9.4296875 C49.5989583,9.67447917 49.1744792,9.796875 48.7005208,9.796875 C48.0807292,9.796875 47.5611979,9.63151042 47.1419271,9.30078125 C46.7226562,8.97005208 46.40625,8.54557292 46.1927083,8.02734375 C45.9791667,7.50911458 45.8723958,6.96875 45.8723958,6.40625 C45.8723958,5.78645833 45.9817708,5.2109375 46.2005208,4.6796875 C46.4192708,4.1484375 46.75,3.72135417 47.1927083,3.3984375 C47.6354167,3.07552083 48.1953125,2.9140625 48.8723958,2.9140625 C49.6536458,2.9140625 50.2617187,3.16276042 50.6966146,3.66015625 C51.1315104,4.15755208 51.3489583,4.78645833 51.3489583,5.546875 L46.8802083,5.546875 C46.8802083,6.01041667 46.9635417,6.48046875 47.1302083,6.95703125 C47.296875,7.43359375 47.5546875,7.83072917 47.9036458,8.1484375 C48.2526042,8.46614583 48.6979167,8.625 49.2395833,8.625 C49.734375,8.625 50.1315104,8.47526042 50.4309896,8.17578125 C50.7304687,7.87630208 50.9661458,7.50520833 51.1380208,7.0625 Z M46.8802083,5.140625 L49.8723958,5.140625 C49.8723958,4.85416667 49.8242187,4.57942708 49.7278646,4.31640625 C49.6315104,4.05338542 49.4804687,3.83854167 49.2747396,3.671875 C49.0690104,3.50520833 48.8020833,3.421875 48.4739583,3.421875 C47.9895833,3.421875 47.6119792,3.59895833 47.3411458,3.953125 C47.0703125,4.30729167 46.9166667,4.703125 46.8802083,5.140625 Z" id="Shape"></path><path d="M62.9878472,3.109375 L62.9878472,3.375 C62.7638889,3.40625 62.5763889,3.49609375 62.4253472,3.64453125 C62.2743056,3.79296875 62.1571181,3.97395833 62.0737847,4.1875 L59.9175347,9.796875 L59.6284722,9.796875 L57.9956597,5.640625 L56.1362847,9.796875 L55.8628472,9.796875 L53.7769097,4.3359375 C53.6623264,4.03385417 53.5451389,3.8125 53.4253472,3.671875 C53.3055556,3.53125 53.0763889,3.43229167 52.7378472,3.375 L52.7378472,3.109375 L55.4644097,3.109375 L55.4644097,3.375 C55.3081597,3.375 55.1701389,3.40104167 55.0503472,3.453125 C54.9305556,3.50520833 54.8706597,3.62760417 54.8706597,3.8203125 C54.8706597,3.9921875 54.9019097,4.1640625 54.9644097,4.3359375 L56.3628472,8.0625 L57.7534722,5.03125 C57.6440972,4.734375 57.5503472,4.46223958 57.4722222,4.21484375 C57.3940972,3.96744792 57.2769097,3.76692708 57.1206597,3.61328125 C56.9644097,3.45963542 56.7118056,3.38020833 56.3628472,3.375 L56.3628472,3.109375 L59.4565972,3.109375 L59.4565972,3.375 C59.2482639,3.38541667 59.0490451,3.41666667 58.858941,3.46875 C58.6688368,3.52083333 58.5737847,3.67708333 58.5737847,3.9375 C58.5737847,4 58.6193576,4.15885417 58.7105035,4.4140625 C58.8016493,4.66927083 58.9175347,4.97265625 59.0581597,5.32421875 C59.1987847,5.67578125 59.343316,6.02994792 59.4917535,6.38671875 C59.640191,6.74348958 59.7730035,7.06119792 59.890191,7.33984375 C60.0073785,7.61848958 60.0868056,7.80729167 60.1284722,7.90625 L61.4722222,4.3359375 C61.5138889,4.23697917 61.5490451,4.13671875 61.577691,4.03515625 C61.6063368,3.93359375 61.6206597,3.828125 61.6206597,3.71875 C61.6206597,3.55729167 61.5373264,3.45963542 61.3706597,3.42578125 C61.2039931,3.39192708 61.0607639,3.375 60.9409722,3.375 L60.9409722,3.109375 L62.9878472,3.109375 Z" id="Path"></path><path d="M78.96875,9.578125 L76.3984375,9.578125 L73.15625,5.109375 C72.9791667,5.125 72.7916667,5.1328125 72.59375,5.1328125 C72.5104167,5.1328125 72.4309896,5.13151042 72.3554688,5.12890625 C72.2799479,5.12630208 72.2057292,5.12239583 72.1328125,5.1171875 L72.1328125,7.890625 C72.1328125,8.28125 72.1653646,8.578125 72.2304688,8.78125 C72.2955729,8.984375 72.4296875,9.12239583 72.6328125,9.1953125 C72.8359375,9.26822917 73.1380208,9.3046875 73.5390625,9.3046875 L73.5390625,9.578125 L69.4296875,9.578125 L69.4296875,9.3046875 C69.8411458,9.3046875 70.1432292,9.26822917 70.3359375,9.1953125 C70.5286458,9.12239583 70.6523438,8.984375 70.7070312,8.78125 C70.7617188,8.578125 70.7890625,8.28125 70.7890625,7.890625 L70.7890625,1.6875 C70.7890625,1.28645833 70.7617188,0.983072917 70.7070312,0.77734375 C70.6523438,0.571614583 70.5286458,0.432291667 70.3359375,0.359375 C70.1432292,0.286458333 69.8411458,0.25 69.4296875,0.25 L69.4296875,0 L73.0390625,0 C73.4557292,0 73.8893229,0.0260416667 74.3398438,0.078125 C74.7903646,0.130208333 75.2096354,0.239583333 75.5976562,0.40625 C75.9856771,0.572916667 76.2994792,0.819010417 76.5390625,1.14453125 C76.7786458,1.47005208 76.8984375,1.90625 76.8984375,2.453125 C76.8984375,3.18229167 76.6744792,3.73828125 76.2265625,4.12109375 C75.7786458,4.50390625 75.2213542,4.765625 74.5546875,4.90625 L76.5078125,7.671875 C76.8567708,8.15625 77.2005208,8.53515625 77.5390625,8.80859375 C77.8776042,9.08203125 78.3541667,9.24739583 78.96875,9.3046875 L78.96875,9.578125 Z M75.3203125,2.5625 C75.3203125,1.94791667 75.1289062,1.45572917 74.7460938,1.0859375 C74.3632812,0.716145833 73.8645833,0.53125 73.25,0.53125 C73.0677083,0.53125 72.8841146,0.544270833 72.6992188,0.5703125 C72.5143229,0.596354167 72.3255208,0.625 72.1328125,0.65625 L72.1328125,4.625 C72.2213542,4.640625 72.3567708,4.6484375 72.5390625,4.6484375 C72.9973958,4.6484375 73.4388021,4.58463542 73.8632812,4.45703125 C74.2877604,4.32942708 74.6367188,4.11458333 74.9101562,3.8125 C75.1835938,3.51041667 75.3203125,3.09375 75.3203125,2.5625 Z" id="Shape"></path><path d="M85.5217014,7.0625 L85.7326389,7.21875 C85.6701389,7.66145833 85.5190972,8.07942708 85.2795139,8.47265625 C85.0399306,8.86588542 84.7326389,9.18489583 84.3576389,9.4296875 C83.9826389,9.67447917 83.5581597,9.796875 83.0842014,9.796875 C82.4644097,9.796875 81.9448785,9.63151042 81.5256076,9.30078125 C81.1063368,8.97005208 80.7899306,8.54557292 80.5763889,8.02734375 C80.3628472,7.50911458 80.2560764,6.96875 80.2560764,6.40625 C80.2560764,5.78645833 80.3654514,5.2109375 80.5842014,4.6796875 C80.8029514,4.1484375 81.1336806,3.72135417 81.5763889,3.3984375 C82.0190972,3.07552083 82.5789931,2.9140625 83.2560764,2.9140625 C84.0373264,2.9140625 84.6453993,3.16276042 85.0802951,3.66015625 C85.515191,4.15755208 85.7326389,4.78645833 85.7326389,5.546875 L81.2638889,5.546875 C81.2638889,6.01041667 81.3472222,6.48046875 81.5138889,6.95703125 C81.6805556,7.43359375 81.9383681,7.83072917 82.2873264,8.1484375 C82.6362847,8.46614583 83.0815972,8.625 83.6232639,8.625 C84.1180556,8.625 84.515191,8.47526042 84.8146701,8.17578125 C85.1141493,7.87630208 85.3498264,7.50520833 85.5217014,7.0625 Z M81.2638889,5.140625 L84.2560764,5.140625 C84.2560764,4.85416667 84.2078993,4.57942708 84.1115451,4.31640625 C84.015191,4.05338542 83.8641493,3.83854167 83.6584201,3.671875 C83.452691,3.50520833 83.1857639,3.421875 82.8576389,3.421875 C82.3732639,3.421875 81.9956597,3.59895833 81.7248264,3.953125 C81.4539931,4.30729167 81.3003472,4.703125 81.2638889,5.140625 Z" id="Shape"></path><path d="M92.1684028,7.9453125 C92.1684028,8.31510417 92.0590278,8.63932292 91.8402778,8.91796875 C91.6215278,9.19661458 91.3454861,9.41276042 91.0121528,9.56640625 C90.6788194,9.72005208 90.3402778,9.796875 89.9965278,9.796875 C89.7934028,9.796875 89.5876736,9.75911458 89.3793403,9.68359375 C89.1710069,9.60807292 88.9717882,9.53255208 88.781684,9.45703125 C88.5915799,9.38151042 88.4210069,9.34375 88.2699653,9.34375 C88.2178819,9.34375 88.1697049,9.38802083 88.125434,9.4765625 C88.0811632,9.56510417 88.0460069,9.63020833 88.0199653,9.671875 L87.7777778,9.671875 L87.7777778,7.3671875 L88.0199653,7.3671875 C88.0876736,7.70572917 88.2048611,8.02604167 88.3715278,8.328125 C88.5381944,8.63020833 88.7569444,8.875 89.0277778,9.0625 C89.2986111,9.25 89.6215278,9.34375 89.9965278,9.34375 C90.2881944,9.34375 90.547309,9.26171875 90.7738715,9.09765625 C91.000434,8.93359375 91.1137153,8.69791667 91.1137153,8.390625 C91.1137153,8.03125 91.000434,7.73697917 90.7738715,7.5078125 C90.547309,7.27864583 90.2673611,7.07942708 89.9340278,6.91015625 C89.6006944,6.74088542 89.2673611,6.56380208 88.9340278,6.37890625 C88.6006944,6.19401042 88.3207465,5.96614583 88.094184,5.6953125 C87.8676215,5.42447917 87.7543403,5.07552083 87.7543403,4.6484375 C87.7543403,4.24739583 87.8546007,3.91927083 88.0551215,3.6640625 C88.2556424,3.40885417 88.516059,3.22005208 88.8363715,3.09765625 C89.156684,2.97526042 89.4939236,2.9140625 89.8480903,2.9140625 C90.0928819,2.9140625 90.3324653,2.95572917 90.5668403,3.0390625 C90.8012153,3.12239583 91.0355903,3.1640625 91.2699653,3.1640625 C91.4001736,3.1640625 91.5017361,3.08072917 91.5746528,2.9140625 L91.8246528,2.9140625 L91.8246528,5.125 L91.5746528,5.125 C91.5069444,4.81770833 91.4027778,4.52604167 91.2621528,4.25 C91.1215278,3.97395833 90.9353299,3.74869792 90.703559,3.57421875 C90.4717882,3.39973958 90.1788194,3.3125 89.8246528,3.3125 C89.6423611,3.3125 89.4548611,3.3359375 89.2621528,3.3828125 C89.0694444,3.4296875 88.9079861,3.515625 88.7777778,3.640625 C88.6475694,3.765625 88.5824653,3.94791667 88.5824653,4.1875 C88.5824653,4.5 88.6684028,4.75651042 88.8402778,4.95703125 C89.0121528,5.15755208 89.234809,5.32942708 89.5082465,5.47265625 C89.781684,5.61588542 90.0707465,5.75390625 90.375434,5.88671875 C90.6801215,6.01953125 90.969184,6.17057292 91.2426215,6.33984375 C91.516059,6.50911458 91.7387153,6.72005208 91.9105903,6.97265625 C92.0824653,7.22526042 92.1684028,7.54947917 92.1684028,7.9453125 Z" id="Path"></path><path d="M97.3307292,8.390625 L97.6041667,8.390625 C97.5052083,8.74479167 97.3098958,9.06770833 97.0182292,9.359375 C96.7265625,9.65104167 96.3854167,9.796875 95.9947917,9.796875 C95.65625,9.796875 95.3932292,9.71484375 95.2057292,9.55078125 C95.0182292,9.38671875 94.8880208,9.17317708 94.8151042,8.91015625 C94.7421875,8.64713542 94.7057292,8.36979167 94.7057292,8.078125 L94.7057292,3.5859375 L93.6822917,3.5859375 L93.6822917,3.375 C94.0104167,3.25 94.3007812,3.05598958 94.5533854,2.79296875 C94.8059896,2.52994792 95.0260417,2.23567708 95.2135417,1.91015625 C95.4010417,1.58463542 95.5572917,1.27083333 95.6822917,0.96875 L95.9010417,0.96875 L95.9010417,3.109375 L97.4166667,3.109375 L97.4166667,3.5859375 L95.9010417,3.5859375 L95.9010417,7.90625 C95.9010417,8.046875 95.9166667,8.20052083 95.9479167,8.3671875 C95.9791667,8.53385417 96.0390625,8.67838542 96.1276042,8.80078125 C96.2161458,8.92317708 96.3489583,8.984375 96.5260417,8.984375 C96.7395833,8.984375 96.9088542,8.9296875 97.0338542,8.8203125 C97.1588542,8.7109375 97.2578125,8.56770833 97.3307292,8.390625 Z" id="Path"></path><path d="M104.907118,8.234375 L104.907118,8.640625 C104.730035,8.88020833 104.511285,9.11848958 104.250868,9.35546875 C103.990451,9.59244792 103.696181,9.7109375 103.368056,9.7109375 C103.065972,9.7109375 102.865451,9.59635417 102.766493,9.3671875 C102.667535,9.13802083 102.618056,8.89583333 102.618056,8.640625 C102.305556,8.890625 101.987847,9.13151042 101.664931,9.36328125 C101.342014,9.59505208 100.969618,9.7109375 100.547743,9.7109375 C100.05816,9.7109375 99.6792535,9.55078125 99.4110243,9.23046875 C99.1427951,8.91015625 99.0086806,8.51302083 99.0086806,8.0390625 C99.0086806,7.6484375 99.1362847,7.30338542 99.3914931,7.00390625 C99.6467014,6.70442708 99.968316,6.4453125 100.356337,6.2265625 C100.744358,6.0078125 101.142795,5.82291667 101.551649,5.671875 C101.960503,5.52083333 102.315972,5.39583333 102.618056,5.296875 L102.618056,5.03125 C102.618056,4.73958333 102.58941,4.46484375 102.532118,4.20703125 C102.474826,3.94921875 102.360243,3.73958333 102.188368,3.578125 C102.016493,3.41666667 101.756076,3.3359375 101.407118,3.3359375 C100.980035,3.3359375 100.71441,3.44921875 100.610243,3.67578125 C100.506076,3.90234375 100.453993,4.19270833 100.453993,4.546875 C100.453993,4.75520833 100.412326,4.91927083 100.328993,5.0390625 C100.24566,5.15885417 100.086806,5.21875 99.8524306,5.21875 C99.6336806,5.21875 99.4800347,5.15625 99.3914931,5.03125 C99.3029514,4.90625 99.2586806,4.74479167 99.2586806,4.546875 C99.2586806,4.15625 99.3888889,3.84114583 99.6493056,3.6015625 C99.9097222,3.36197917 100.223524,3.1875 100.590712,3.078125 C100.957899,2.96875 101.302951,2.9140625 101.625868,2.9140625 C102.443576,2.9140625 103.008681,3.08072917 103.321181,3.4140625 C103.633681,3.74739583 103.789931,4.31770833 103.789931,5.125 L103.789931,7.328125 C103.789931,7.51041667 103.791233,7.71484375 103.793837,7.94140625 C103.796441,8.16796875 103.80816,8.34114583 103.828993,8.4609375 C103.83941,8.54947917 103.868056,8.63020833 103.914931,8.703125 C103.961806,8.77604167 104.034722,8.8125 104.133681,8.8125 C104.206597,8.8125 104.295139,8.7734375 104.399306,8.6953125 C104.503472,8.6171875 104.603733,8.53255208 104.700087,8.44140625 C104.796441,8.35026042 104.865451,8.28125 104.907118,8.234375 Z M102.618056,8.171875 L102.618056,5.6953125 C102.300347,5.81510417 101.952691,5.96614583 101.575087,6.1484375 C101.197483,6.33072917 100.873264,6.55078125 100.602431,6.80859375 C100.331597,7.06640625 100.196181,7.3671875 100.196181,7.7109375 C100.196181,7.9921875 100.284722,8.2578125 100.461806,8.5078125 C100.638889,8.7578125 100.886285,8.8828125 101.203993,8.8828125 C101.448785,8.8828125 101.697483,8.80338542 101.950087,8.64453125 C102.202691,8.48567708 102.425347,8.328125 102.618056,8.171875 Z" id="Shape"></path><path d="M113.069444,8.984375 L111.108507,9.796875 L110.780382,9.796875 L110.780382,8.40625 C110.592882,8.609375 110.385851,8.81901042 110.159288,9.03515625 C109.932726,9.25130208 109.687934,9.43229167 109.424913,9.578125 C109.161892,9.72395833 108.87934,9.796875 108.577257,9.796875 C108.108507,9.796875 107.75434,9.66536458 107.514757,9.40234375 C107.275174,9.13932292 107.113715,8.8125 107.030382,8.421875 C106.947049,8.03125 106.905382,7.6484375 106.905382,7.2734375 L106.905382,4.375 C106.905382,3.953125 106.823351,3.68098958 106.659288,3.55859375 C106.495226,3.43619792 106.212674,3.375 105.811632,3.375 L105.811632,3.109375 L108.100694,3.109375 L108.100694,7.4296875 C108.100694,7.67447917 108.128038,7.91015625 108.182726,8.13671875 C108.237413,8.36328125 108.342882,8.54817708 108.499132,8.69140625 C108.655382,8.83463542 108.87934,8.90625 109.171007,8.90625 C109.478299,8.90625 109.772569,8.8046875 110.053819,8.6015625 C110.335069,8.3984375 110.577257,8.19270833 110.780382,7.984375 L110.780382,4.3203125 C110.780382,3.92447917 110.697049,3.66796875 110.530382,3.55078125 C110.363715,3.43359375 110.09809,3.375 109.733507,3.375 L109.733507,3.109375 L111.952257,3.109375 L111.952257,7.875 C111.952257,7.96875 111.960069,8.09244792 111.975694,8.24609375 C111.991319,8.39973958 112.02908,8.53776042 112.088976,8.66015625 C112.148872,8.78255208 112.249132,8.84375 112.389757,8.84375 C112.59809,8.84375 112.793403,8.80729167 112.975694,8.734375 L113.069444,8.984375 Z" id="Path"></path><path d="M118.864583,3.703125 C118.864583,3.875 118.800781,4.02734375 118.673177,4.16015625 C118.545573,4.29296875 118.393229,4.359375 118.216146,4.359375 C118.059896,4.359375 117.927083,4.31770833 117.817708,4.234375 C117.708333,4.15104167 117.608073,4.06770833 117.516927,3.984375 C117.425781,3.90104167 117.325521,3.859375 117.216146,3.859375 C117.080729,3.859375 116.928385,3.96484375 116.759115,4.17578125 C116.589844,4.38671875 116.429687,4.64322917 116.278646,4.9453125 L116.278646,8.078125 C116.278646,8.48958333 116.356771,8.796875 116.513021,9 C116.669271,9.203125 116.96875,9.3046875 117.411458,9.3046875 L117.411458,9.578125 L114.067708,9.578125 L114.067708,9.3046875 C114.390625,9.3046875 114.623698,9.26822917 114.766927,9.1953125 C114.910156,9.12239583 115,9 115.036458,8.828125 C115.072917,8.65625 115.091146,8.41927083 115.091146,8.1171875 L115.091146,5.3203125 C115.091146,4.87239583 115.0625,4.51692708 115.005208,4.25390625 C114.947917,3.99088542 114.78125,3.859375 114.505208,3.859375 C114.375,3.859375 114.229167,3.890625 114.067708,3.953125 L113.989583,3.703125 L115.989583,2.9140625 L116.278646,2.9140625 L116.278646,4.375 C116.388021,4.17708333 116.523437,3.96484375 116.684896,3.73828125 C116.846354,3.51171875 117.033854,3.31770833 117.247396,3.15625 C117.460937,2.99479167 117.695312,2.9140625 117.950521,2.9140625 C118.179687,2.9140625 118.389323,2.98307292 118.579427,3.12109375 C118.769531,3.25911458 118.864583,3.453125 118.864583,3.703125 Z" id="Path"></path><path d="M126.190972,8.234375 L126.190972,8.640625 C126.013889,8.88020833 125.795139,9.11848958 125.534722,9.35546875 C125.274306,9.59244792 124.980035,9.7109375 124.65191,9.7109375 C124.349826,9.7109375 124.149306,9.59635417 124.050347,9.3671875 C123.951389,9.13802083 123.90191,8.89583333 123.90191,8.640625 C123.58941,8.890625 123.271701,9.13151042 122.948785,9.36328125 C122.625868,9.59505208 122.253472,9.7109375 121.831597,9.7109375 C121.342014,9.7109375 120.963108,9.55078125 120.694878,9.23046875 C120.426649,8.91015625 120.292535,8.51302083 120.292535,8.0390625 C120.292535,7.6484375 120.420139,7.30338542 120.675347,7.00390625 C120.930556,6.70442708 121.25217,6.4453125 121.640191,6.2265625 C122.028212,6.0078125 122.426649,5.82291667 122.835503,5.671875 C123.244358,5.52083333 123.599826,5.39583333 123.90191,5.296875 L123.90191,5.03125 C123.90191,4.73958333 123.873264,4.46484375 123.815972,4.20703125 C123.758681,3.94921875 123.644097,3.73958333 123.472222,3.578125 C123.300347,3.41666667 123.039931,3.3359375 122.690972,3.3359375 C122.263889,3.3359375 121.998264,3.44921875 121.894097,3.67578125 C121.789931,3.90234375 121.737847,4.19270833 121.737847,4.546875 C121.737847,4.75520833 121.696181,4.91927083 121.612847,5.0390625 C121.529514,5.15885417 121.37066,5.21875 121.136285,5.21875 C120.917535,5.21875 120.763889,5.15625 120.675347,5.03125 C120.586806,4.90625 120.542535,4.74479167 120.542535,4.546875 C120.542535,4.15625 120.672743,3.84114583 120.93316,3.6015625 C121.193576,3.36197917 121.507378,3.1875 121.874566,3.078125 C122.241753,2.96875 122.586806,2.9140625 122.909722,2.9140625 C123.727431,2.9140625 124.292535,3.08072917 124.605035,3.4140625 C124.917535,3.74739583 125.073785,4.31770833 125.073785,5.125 L125.073785,7.328125 C125.073785,7.51041667 125.075087,7.71484375 125.077691,7.94140625 C125.080295,8.16796875 125.092014,8.34114583 125.112847,8.4609375 C125.123264,8.54947917 125.15191,8.63020833 125.198785,8.703125 C125.24566,8.77604167 125.318576,8.8125 125.417535,8.8125 C125.490451,8.8125 125.578993,8.7734375 125.68316,8.6953125 C125.787326,8.6171875 125.887587,8.53255208 125.983941,8.44140625 C126.080295,8.35026042 126.149306,8.28125 126.190972,8.234375 Z M123.90191,8.171875 L123.90191,5.6953125 C123.584201,5.81510417 123.236545,5.96614583 122.858941,6.1484375 C122.481337,6.33072917 122.157118,6.55078125 121.886285,6.80859375 C121.615451,7.06640625 121.480035,7.3671875 121.480035,7.7109375 C121.480035,7.9921875 121.568576,8.2578125 121.74566,8.5078125 C121.922743,8.7578125 122.170139,8.8828125 122.487847,8.8828125 C122.732639,8.8828125 122.981337,8.80338542 123.233941,8.64453125 C123.486545,8.48567708 123.709201,8.328125 123.90191,8.171875 Z" id="Shape"></path><path d="M134.314236,9.578125 L131.072049,9.578125 L131.072049,9.3046875 C131.400174,9.3046875 131.638455,9.27083333 131.786892,9.203125 C131.93533,9.13541667 132.02908,9.01432292 132.068142,8.83984375 C132.107205,8.66536458 132.126736,8.42447917 132.126736,8.1171875 L132.126736,5.46875 C132.126736,5.22395833 132.108507,4.97135417 132.072049,4.7109375 C132.03559,4.45052083 131.945747,4.23046875 131.802517,4.05078125 C131.659288,3.87109375 131.428819,3.78125 131.111111,3.78125 C130.772569,3.78125 130.462674,3.87760417 130.181424,4.0703125 C129.900174,4.26302083 129.652778,4.47395833 129.439236,4.703125 L129.439236,8.1171875 C129.439236,8.41927083 129.458767,8.65625 129.49783,8.828125 C129.536892,9 129.630642,9.12239583 129.77908,9.1953125 C129.927517,9.26822917 130.163194,9.3046875 130.486111,9.3046875 L130.486111,9.578125 L127.267361,9.578125 L127.267361,9.3046875 C127.585069,9.3046875 127.811632,9.26302083 127.947049,9.1796875 C128.082465,9.09635417 128.167101,8.96614583 128.200955,8.7890625 C128.234809,8.61197917 128.251736,8.38802083 128.251736,8.1171875 L128.251736,5.1328125 C128.251736,4.80989583 128.22309,4.51432292 128.165799,4.24609375 C128.108507,3.97786458 127.970486,3.84375 127.751736,3.84375 C127.673611,3.84375 127.592882,3.85546875 127.509549,3.87890625 C127.426215,3.90234375 127.345486,3.92708333 127.267361,3.953125 L127.173611,3.703125 L129.150174,2.9140625 L129.439236,2.9140625 L129.439236,4.28125 C129.699653,3.95833333 130.014757,3.64973958 130.384549,3.35546875 C130.75434,3.06119792 131.16059,2.9140625 131.603299,2.9140625 C132.072049,2.9140625 132.428819,3.03645833 132.673611,3.28125 C132.918403,3.52604167 133.083767,3.83463542 133.169705,4.20703125 C133.255642,4.57942708 133.298611,4.9609375 133.298611,5.3515625 L133.298611,8.1171875 C133.298611,8.52864583 133.350694,8.82942708 133.454861,9.01953125 C133.559028,9.20963542 133.845486,9.3046875 134.314236,9.3046875 L134.314236,9.578125 Z" id="Path"></path><path d="M138.976562,8.390625 L139.25,8.390625 C139.151042,8.74479167 138.955729,9.06770833 138.664062,9.359375 C138.372396,9.65104167 138.03125,9.796875 137.640625,9.796875 C137.302083,9.796875 137.039062,9.71484375 136.851562,9.55078125 C136.664062,9.38671875 136.533854,9.17317708 136.460938,8.91015625 C136.388021,8.64713542 136.351562,8.36979167 136.351562,8.078125 L136.351562,3.5859375 L135.328125,3.5859375 L135.328125,3.375 C135.65625,3.25 135.946615,3.05598958 136.199219,2.79296875 C136.451823,2.52994792 136.671875,2.23567708 136.859375,1.91015625 C137.046875,1.58463542 137.203125,1.27083333 137.328125,0.96875 L137.546875,0.96875 L137.546875,3.109375 L139.0625,3.109375 L139.0625,3.5859375 L137.546875,3.5859375 L137.546875,7.90625 C137.546875,8.046875 137.5625,8.20052083 137.59375,8.3671875 C137.625,8.53385417 137.684896,8.67838542 137.773438,8.80078125 C137.861979,8.92317708 137.994792,8.984375 138.171875,8.984375 C138.385417,8.984375 138.554688,8.9296875 138.679688,8.8203125 C138.804688,8.7109375 138.903646,8.56770833 138.976562,8.390625 Z" id="Path"></path></g></g></g></g></g></svg>