<svg xmlns="http://www.w3.org/2000/svg" xmlns:xlink="http://www.w3.org/1999/xlink" width="195px" height="58px" viewBox="0 0 195 58"><title>National Restaurant Awards</title><g id="Page-1" stroke="none" stroke-width="1" fill="none" fill-rule="evenodd"><g id="Desktop-HD-Copy" transform="translate(-1107.000000, -3311.000000)"><g id="Footer" transform="translate(0.000000, 3287.000000)"><g id="National-Restaurant-Awards" transform="translate(1107.000000, 24.000000)"><line x1="72" y1="0" x2="72" y2="57" id="Path" stroke="#FBF8F4" stroke-width="1.3813"></line><path d="M90.9073084,0.2784 L90.9073084,16.4488 L87.6862745,16.4488 L84.9750446,10.1848 L83.5151515,6.2408 L83.4456328,6.3104 C83.7005348,8.352 83.8627451,11.368 83.8627451,13.1544 L83.8627451,16.4256 L80.6417112,16.4256 L80.6417112,0.2784 L83.8627451,0.2784 L86.9215686,7.2848 C87.315508,8.3056 87.6862745,9.3728 88.0802139,10.3704 L88.1497326,10.3008 C87.8716578,8.2592 87.6862745,5.4984 87.6862745,3.9904 L87.6862745,0.2784 L90.9073084,0.2784 L90.9073084,0.2784 Z M99.1800357,10.6488 L98.8092692,8.7928 C98.600713,7.6328 98.3226381,5.684 98.1604278,4.3616 L98.0677362,4.3616 C97.9055258,5.684 97.6506239,7.6328 97.4188948,8.7928 L97.0481283,10.6488 L99.1800357,10.6488 L99.1800357,10.6488 Z M99.828877,13.7576 L96.4224599,13.7576 L95.8894831,16.4256 L92.5062389,16.4256 L96.3761141,0.2552 L99.8752228,0.2552 L103.745098,16.4256 L100.361854,16.4256 L99.828877,13.7576 L99.828877,13.7576 Z M103.258467,0.2784 L103.258467,3.3872 L106.409982,3.3872 L106.409982,16.4256 L109.793226,16.4256 L109.793226,3.3872 L112.944742,3.3872 L112.944742,0.2784 L103.258467,0.2784 Z M114.659537,0.2784 L117.926916,0.2784 L117.926916,16.4256 L114.659537,16.4256 L114.659537,0.2784 Z M127.172906,11.2056 L127.172906,5.5216 C127.172906,3.9904 126.547237,3.2016 125.319073,3.2016 C124.090909,3.2016 123.465241,4.0136 123.465241,5.5216 L123.465241,11.2056 C123.465241,12.7368 124.090909,13.5256 125.319073,13.5256 C126.547237,13.5256 127.172906,12.7136 127.172906,11.2056 M120.081996,11.2056 L120.081996,5.5216 C120.081996,2.0648 122.051693,0 125.319073,0 C128.586453,0 130.55615,2.0648 130.55615,5.5216 L130.55615,11.2056 C130.55615,14.6624 128.586453,16.7272 125.319073,16.7272 C122.051693,16.7272 120.081996,14.6624 120.081996,11.2056 M142.976827,0.2784 L142.976827,16.4488 L139.755793,16.4488 L137.044563,10.1848 L135.58467,6.2408 L135.515152,6.3104 C135.770053,8.352 135.932264,11.368 135.932264,13.1544 L135.932264,16.4256 L132.71123,16.4256 L132.71123,0.2784 L135.932264,0.2784 L138.991087,7.2848 C139.385027,8.3056 139.755793,9.3728 140.149733,10.3704 L140.219251,10.3008 C139.941176,8.2592 139.755793,5.4984 139.755793,3.9904 L139.755793,0.2784 L142.976827,0.2784 Z M151.249554,10.6488 L150.878788,8.7928 C150.670232,7.6328 150.392157,5.684 150.229947,4.3616 L150.137255,4.3616 C149.975045,5.684 149.720143,7.6328 149.488414,8.7928 L149.117647,10.6488 L151.249554,10.6488 L151.249554,10.6488 Z M151.898396,13.7576 L148.491979,13.7576 L147.959002,16.4256 L144.575758,16.4256 L148.445633,0.2552 L151.944742,0.2552 L155.814617,16.4256 L152.431373,16.4256 L151.898396,13.7576 L151.898396,13.7576 Z M157.413547,0.2784 L157.413547,16.4256 L165.477718,16.4256 L165.477718,13.3168 L160.680927,13.3168 L160.680927,0.2784 L157.413547,0.2784 Z M83.885918,28.3736 L85.2531194,28.3736 C86.4117647,28.3736 87.0374332,27.5848 87.0374332,26.1232 C87.0374332,24.6384 86.4117647,23.8496 85.2531194,23.8496 L83.885918,23.8496 L83.885918,28.3736 Z M85.0445633,31.4824 L83.885918,31.4824 L83.885918,36.9112 L80.6185383,36.9112 L80.6185383,20.7408 L85.2994652,20.7408 C88.4973262,20.7408 90.3975045,22.736 90.3975045,26.1232 C90.3975045,28.3272 89.5864528,29.928 88.1497326,30.7864 L91.1853832,36.9112 L87.6167558,36.9112 L85.0445633,31.4824 Z M101.335116,33.8024 L101.335116,36.9112 L92.7843137,36.9112 L92.7843137,20.7408 L101.103387,20.7408 L101.103387,23.8728 L96.0748663,23.8728 L96.0748663,27.2136 L100.663102,27.2136 L100.663102,30.2064 L96.0748663,30.2064 L96.0748663,33.8024 L101.335116,33.8024 Z M102.748663,32.2016 L106.108734,32.2016 C106.108734,33.5008 106.757576,34.0576 107.800357,34.0576 C108.889483,34.0576 109.42246,33.4312 109.42246,32.6192 C109.42246,29.9512 103.096257,29.6264 103.096257,24.708 C103.096257,22.2488 104.834225,20.4392 107.800357,20.4392 C110.766488,20.4392 112.573975,22.2256 112.573975,25.1952 L109.213904,25.1952 C109.213904,24.128 108.727273,23.5944 107.777184,23.5944 C106.919786,23.5944 106.409982,24.0584 106.409982,24.8008 C106.409982,27.3296 112.828877,27.492 112.828877,32.6424 C112.828877,35.2872 110.951872,37.236 107.754011,37.236 C104.695187,37.236 102.748663,35.4496 102.748663,32.2016 M123.534759,23.8728 L120.383244,23.8728 L120.383244,36.9112 L117.023173,36.9112 L117.023173,23.8728 L113.871658,23.8728 L113.871658,20.7408 L123.534759,20.7408 L123.534759,23.8728 Z M130.811052,31.1112 L130.440285,29.2552 C130.231729,28.0952 129.953654,26.1464 129.791444,24.824 L129.698752,24.824 C129.536542,26.1464 129.28164,28.0952 129.049911,29.2552 L128.679144,31.1112 L130.811052,31.1112 L130.811052,31.1112 Z M131.459893,34.2432 L128.053476,34.2432 L127.520499,36.9112 L124.137255,36.9112 L128.00713,20.7408 L131.506239,20.7408 L135.376114,36.9112 L131.99287,36.9112 L131.459893,34.2432 L131.459893,34.2432 Z M136.372549,31.7144 L136.372549,20.7408 L139.778966,20.7408 L139.778966,31.7144 C139.778966,33.1992 140.358289,34.0112 141.516934,34.0112 C142.675579,34.0112 143.254902,33.1992 143.254902,31.7144 L143.254902,20.7408 L146.661319,20.7408 L146.661319,31.7144 C146.661319,35.1248 144.737968,37.1896 141.516934,37.1896 C138.2959,37.1896 136.372549,35.1248 136.372549,31.7144 M152.245989,28.3736 L153.613191,28.3736 C154.771836,28.3736 155.397504,27.5848 155.397504,26.1232 C155.397504,24.6384 154.771836,23.8496 153.613191,23.8496 L152.245989,23.8496 L152.245989,28.3736 L152.245989,28.3736 Z M153.404635,31.4824 L152.245989,31.4824 L152.245989,36.9112 L148.97861,36.9112 L148.97861,20.7408 L153.659537,20.7408 C156.857398,20.7408 158.757576,22.736 158.757576,26.1232 C158.757576,28.3272 157.946524,29.928 156.509804,30.7864 L159.545455,36.9112 L155.976827,36.9112 L153.404635,31.4824 L153.404635,31.4824 Z M167.192513,31.1112 L166.821747,29.2552 C166.613191,28.0952 166.335116,26.1464 166.172906,24.824 L166.080214,24.824 C165.918004,26.1464 165.663102,28.0952 165.431373,29.2552 L165.060606,31.1112 L167.192513,31.1112 L167.192513,31.1112 Z M167.818182,34.2432 L164.411765,34.2432 L163.878788,36.9112 L160.495544,36.9112 L164.365419,20.7408 L167.864528,20.7408 L171.734403,36.9112 L168.351159,36.9112 L167.818182,34.2432 L167.818182,34.2432 Z M183.59893,20.7408 L183.59893,36.9112 L180.377897,36.9112 L177.666667,30.6472 L176.206774,26.7032 L176.137255,26.7728 C176.392157,28.8144 176.554367,31.8304 176.554367,33.6168 L176.554367,36.888 L173.333333,36.888 L173.333333,20.7408 L176.554367,20.7408 L179.613191,27.7472 C180.00713,28.768 180.377897,29.8352 180.771836,30.8328 L180.841355,30.7632 C180.56328,28.7216 180.377897,25.9608 180.377897,24.4528 L180.377897,20.7408 L183.59893,20.7408 L183.59893,20.7408 Z M185.313725,20.7408 L185.313725,23.8728 L188.488414,23.8728 L188.488414,36.9112 L191.848485,36.9112 L191.848485,23.8728 L195,23.8728 L195,20.7408 L185.313725,20.7408 Z M87.4545455,51.8984 L87.083779,50.0424 C86.8752228,48.8824 86.597148,46.9336 86.4349376,45.6112 L86.342246,45.6112 C86.1800357,46.9336 85.9251337,48.8824 85.6934046,50.0424 L85.3226381,51.8984 L87.4545455,51.8984 L87.4545455,51.8984 Z M88.1033868,55.0072 L84.6969697,55.0072 L84.1639929,57.6752 L80.7807487,57.6752 L84.6506239,41.5048 L88.1497326,41.5048 L92.0196078,57.6752 L88.6363636,57.6752 L88.1033868,55.0072 L88.1033868,55.0072 Z M109.538324,41.528 L105.900178,57.6752 L102.424242,57.6752 L101.265597,52.2696 C100.871658,50.5064 100.593583,48.3024 100.500891,46.98 L100.4082,46.98 C100.315508,48.3024 100.037433,50.5064 99.6434938,52.2696 L98.4848485,57.6752 L95.0320856,57.6752 L91.4171123,41.528 L94.8003565,41.528 L96.0748663,49.1608 C96.2602496,50.344 96.5846702,52.316 96.7468806,53.6616 L96.8395722,53.6616 C97.0017825,52.316 97.3262032,50.344 97.5115865,49.1608 L98.7860963,41.76 L102.192513,41.76 L103.467023,49.1608 C103.652406,50.344 103.976827,52.316 104.139037,53.6616 L104.231729,53.6616 C104.393939,52.316 104.71836,50.344 104.903743,49.1608 L106.178253,41.528 L109.538324,41.528 L109.538324,41.528 Z M115.609626,51.8984 L115.238859,50.0424 C115.030303,48.8824 114.752228,46.9336 114.590018,45.6112 L114.497326,45.6112 C114.335116,46.9336 114.080214,48.8824 113.848485,50.0424 L113.477718,51.8984 L115.609626,51.8984 L115.609626,51.8984 Z M116.258467,55.0072 L112.85205,55.0072 L112.319073,57.6752 L108.935829,57.6752 L112.805704,41.5048 L116.304813,41.5048 L120.174688,57.6752 L116.791444,57.6752 L116.258467,55.0072 L116.258467,55.0072 Z M124.994652,49.1376 L126.361854,49.1376 C127.520499,49.1376 128.146168,48.3488 128.146168,46.9104 C128.146168,45.4256 127.520499,44.6368 126.361854,44.6368 L124.994652,44.6368 L124.994652,49.1376 Z M126.153298,52.2696 L124.994652,52.2696 L124.994652,57.6984 L121.727273,57.6984 L121.727273,41.528 L126.4082,41.528 C129.606061,41.528 131.506239,43.5232 131.506239,46.9104 C131.506239,49.1144 130.695187,50.7152 129.28164,51.5736 L132.317291,57.6984 L128.748663,57.6984 L126.153298,52.2696 Z M138.365419,54.5664 C139.547237,54.5664 140.172906,53.7544 140.172906,52.2 L140.172906,46.864 C140.172906,45.3792 139.547237,44.6136 138.365419,44.6136 L137.183601,44.6136 L137.183601,54.5432 L138.365419,54.5664 L138.365419,54.5664 Z M133.893048,41.528 L138.319073,41.528 C141.56328,41.528 143.486631,43.5232 143.486631,46.8872 L143.486631,52.2232 C143.486631,55.6568 141.586453,57.6984 138.365419,57.6984 L133.893048,57.6984 L133.893048,41.528 Z M144.946524,52.9656 L148.306595,52.9656 C148.306595,54.2648 148.955437,54.8216 149.998217,54.8216 C151.087344,54.8216 151.620321,54.1952 151.620321,53.3832 C151.620321,50.7152 145.294118,50.3904 145.294118,45.472 C145.294118,43.0128 147.032086,41.2032 149.998217,41.2032 C152.964349,41.2032 154.771836,42.9896 154.771836,45.9592 L151.411765,45.9592 C151.411765,44.892 150.925134,44.3584 149.975045,44.3584 C149.117647,44.3584 148.607843,44.8224 148.607843,45.5648 C148.607843,48.0936 155.026738,48.256 155.026738,53.4064 C155.026738,56.0512 153.149733,58 149.951872,58 C146.869875,58 144.946524,56.2368 144.946524,52.9656 M32.627451,28.884 L20.7860963,37.4912 L25.3048128,23.5712 L13.486631,14.9408 L28.1087344,14.9408 L32.627451,1.0208 L37.1461676,14.9408 L51.7682709,14.9408 L39.9500891,23.5712 L44.4688057,37.4912 L32.627451,28.884 Z M38.1889483,57.6752 C38.3048128,57.5128 38.4438503,57.304 38.4438503,56.9792 L38.4438503,53.012 C38.4438503,52.6872 38.3279857,52.4784 38.1889483,52.316 L38.1194296,52.2232 L40.0196078,52.2232 L40.8306595,54.3344 L40.8770053,54.3344 L41.5490196,52.2232 L43.5650624,52.2232 L43.4955437,52.316 C43.3796791,52.4784 43.2406417,52.6872 43.2406417,53.012 L43.2406417,56.9792 C43.2406417,57.304 43.3565062,57.5128 43.4955437,57.6752 L43.5650624,57.768 L41.4331551,57.768 L41.5026738,57.6752 C41.6185383,57.5128 41.7575758,57.304 41.7575758,56.9792 L41.7575758,54.3576 L41.7112299,54.3576 L41.0855615,56.0976 L40.483066,56.0976 L39.8573975,54.3576 L39.8110517,54.3576 L39.8110517,56.9792 C39.8110517,57.304 39.9269162,57.5128 40.0659537,57.6752 L40.1354724,57.768 L38.1194296,57.768 L38.1889483,57.6752 L38.1889483,57.6752 Z M21.6666667,57.768 L24.4705882,57.768 C25.3975045,57.768 25.9073084,57.2808 25.9073084,56.4224 L25.9073084,53.592 C25.9073084,52.7336 25.3975045,52.2464 24.4705882,52.2464 L21.6666667,52.2464 L21.7361854,52.3392 C21.8520499,52.5016 21.9910873,52.7104 21.9910873,53.0352 L21.9910873,57.0024 C21.9910873,57.3272 21.8752228,57.536 21.7361854,57.6984 L21.6666667,57.768 L21.6666667,57.768 Z M23.5668449,56.8168 L23.5668449,53.1744 L23.9607843,53.1744 C24.285205,53.1744 24.3315508,53.36 24.3315508,53.4992 L24.3315508,56.4688 C24.3315508,56.608 24.285205,56.7936 23.9607843,56.7936 L23.5668449,56.7936 L23.5668449,56.8168 L23.5668449,56.8168 Z M26.6256684,57.768 L28.4331551,57.768 L28.3868093,57.6752 C28.2941176,57.42 28.2709447,57.2808 28.2941176,57.0024 L28.3404635,56.5848 L29.2905526,56.5848 L29.3600713,57.0488 C29.3832442,57.2344 29.3832442,57.4432 29.2673797,57.652 L29.2210339,57.7448 L31.2139037,57.7448 L31.144385,57.6288 C31.0285205,57.4664 30.9590018,57.2576 30.8894831,56.956 L30.2638146,53.0352 C30.2174688,52.78 30.2406417,52.5016 30.3101604,52.316 L30.3565062,52.2 L27.4367201,52.2 L27.483066,52.316 C27.5757576,52.5016 27.5989305,52.7568 27.5294118,53.0816 L26.9269162,57.0488 C26.9037433,57.2112 26.8342246,57.3968 26.741533,57.5824 L26.6256684,57.768 L26.6256684,57.768 Z M28.4795009,55.6336 L28.8039216,53.1976 L28.8734403,53.1976 L29.1746881,55.6336 L28.4795009,55.6336 Z M31.7932264,57.768 L33.8092692,57.768 L33.7397504,57.6752 C33.6238859,57.5128 33.4848485,57.304 33.4848485,56.9792 L33.4848485,54.3576 L33.5311943,54.3576 L34.1568627,56.0976 L34.7593583,56.0976 L35.3850267,54.3576 L35.4313725,54.3576 L35.4313725,56.9792 C35.4313725,57.304 35.315508,57.5128 35.1764706,57.6752 L35.1069519,57.768 L37.2388592,57.768 L37.1693405,57.6752 C37.0534759,57.5128 36.9144385,57.304 36.9144385,56.9792 L36.9144385,53.012 C36.9144385,52.6872 37.030303,52.4784 37.1693405,52.316 L37.2388592,52.2232 L35.2228164,52.2232 L34.5508021,54.3344 L34.5044563,54.3344 L33.6934046,52.2232 L31.7932264,52.2232 L31.8627451,52.316 C31.9786096,52.4784 32.1176471,52.6872 32.1176471,53.012 L32.1176471,56.9792 C32.1176471,57.304 32.0017825,57.5128 31.8627451,57.6752 L31.7932264,57.768 Z M0,50.344 L7.02139037,50.344 L7.02139037,47.8616 L6.85918004,48.0008 C6.55793226,48.2328 6.3030303,48.4416 5.56149733,48.4416 L3.68449198,48.4416 L3.68449198,45.7736 L4.79679144,45.7736 C5.53832442,45.7736 5.79322638,45.9824 6.09447415,46.2144 L6.25668449,46.3536 L6.25668449,43.2912 L6.09447415,43.4304 C5.79322638,43.6624 5.51515152,43.8712 4.79679144,43.8712 L3.68449198,43.8712 L3.68449198,41.1568 L5.56149733,41.1568 C6.3030303,41.1568 6.55793226,41.3656 6.85918004,41.5976 L7.02139037,41.7368 L7.02139037,39.2544 L0,39.2544 L0.139037433,39.4168 C0.370766488,39.7184 0.579322638,39.9968 0.579322638,40.716 L0.579322638,48.836 C0.579322638,49.5784 0.370766488,49.8336 0.139037433,50.1352 L0,50.344 L0,50.344 Z M7.9483066,42.3168 C7.9483066,43.5464 8.27272727,44.4512 9.2228164,45.1704 L10.4973262,46.0984 C11.516934,46.8408 11.7023173,47.096 11.7023173,47.6064 C11.7023173,48.2328 11.2388592,48.5112 10.3582888,48.5112 C9.6631016,48.5112 8.96791444,48.2792 8.48128342,48.0008 L7.9714795,47.7224 L7.9714795,50.4832 L8.20320856,50.4136 C8.48128342,50.3208 8.8057041,50.2744 9.13012478,50.2744 C9.68627451,50.2744 10.3582888,50.3904 11.0766488,50.3904 C13.4634581,50.3904 14.6916221,49.2304 14.6916221,47.2816 C14.6916221,46.2144 14.2745098,45.124 13.1622103,44.312 L11.8877005,43.384 C11.1461676,42.8272 10.8912656,42.572 10.8912656,42.0616 C10.8912656,41.4816 11.1925134,41.1336 12.0499109,41.1336 C12.6755793,41.1336 13.2317291,41.3424 13.7183601,41.644 L14.2049911,41.9224 L14.2049911,39.208 L13.973262,39.2776 C13.7647059,39.324 13.4634581,39.3704 13.1390374,39.3704 C12.6292335,39.3704 11.9803922,39.2544 11.2388592,39.2544 C9.2459893,39.2312 7.9483066,40.2984 7.9483066,42.3168 M15.0855615,41.8296 L15.2709447,41.6904 C15.5953654,41.4584 16.0819964,41.1568 16.8698752,41.1568 L17.3101604,41.1568 L17.3101604,48.7896 C17.3101604,49.532 17.1479501,49.9032 16.8698752,50.1584 L16.684492,50.3208 L21.087344,50.3208 L20.9483066,50.1584 C20.6934046,49.8336 20.4385027,49.532 20.4385027,48.7896 L20.4385027,41.1568 L20.8787879,41.1568 C21.6898396,41.1568 22.1764706,41.4584 22.4777184,41.6904 L22.6631016,41.8296 L22.6631016,39.2776 L15.0855615,39.2776 L15.0855615,41.8296 Z M23.4278075,50.344 L27.6684492,50.344 L27.5294118,50.1816 C27.2976827,49.88 27.0891266,49.6016 27.0891266,48.8824 L27.0891266,45.8664 L27.7843137,45.8664 L29.3368984,50.3672 L32.6737968,50.3672 C32.3957219,50.0424 32.2335116,49.6944 32.0481283,49.2304 L30.5418895,45.4256 C31.2370766,44.9848 31.631016,44.196 31.631016,43.0824 L31.631016,42.0152 C31.631016,40.2752 30.6114082,39.3008 28.8270945,39.3008 L23.4509804,39.3008 L23.5900178,39.4632 C23.8217469,39.7648 24.030303,40.02 24.030303,40.7624 L24.030303,48.8824 C24.030303,49.6248 23.8217469,49.88 23.5900178,50.1816 L23.4278075,50.344 Z M27.0891266,43.964 L27.0891266,41.18 L27.7843137,41.18 C28.456328,41.18 28.5258467,41.5744 28.5258467,41.876 L28.5258467,43.2912 C28.5258467,43.5928 28.4331551,43.9872 27.7843137,43.9872 L27.0891266,43.9872 L27.0891266,43.964 Z M33.3921569,50.344 L40.4135472,50.344 L40.4135472,47.8616 L40.2513369,48.0008 C39.9500891,48.2328 39.6720143,48.4416 38.9536542,48.4416 L37.0766488,48.4416 L37.0766488,45.7736 L38.1889483,45.7736 C38.9304813,45.7736 39.1853832,45.9824 39.486631,46.2144 L39.6488414,46.3536 L39.6488414,43.2912 L39.486631,43.4304 C39.1853832,43.6624 38.9304813,43.8712 38.1889483,43.8712 L37.0766488,43.8712 L37.0766488,41.1568 L38.9536542,41.1568 C39.6951872,41.1568 39.9500891,41.3656 40.2513369,41.5976 L40.4135472,41.7368 L40.4135472,39.2544 L33.3921569,39.2544 L33.5311943,39.4168 C33.7629234,39.7184 33.9714795,39.9736 33.9714795,40.716 L33.9714795,48.836 C33.9714795,49.5784 33.7629234,49.8336 33.5311943,50.1352 L33.3921569,50.344 L33.3921569,50.344 Z M41.7575758,50.344 L48.3618538,50.344 L48.3618538,47.8152 L48.1996435,47.9544 C47.8983957,48.1864 47.5276292,48.4648 46.7860963,48.4648 L45.4884135,48.4648 L45.4884135,40.7624 C45.4884135,40.02 45.6969697,39.7648 45.9286988,39.4632 L46.0677362,39.3008 L41.7575758,39.3008 L41.8966132,39.4632 C42.1283422,39.7648 42.3368984,40.02 42.3368984,40.7624 L42.3368984,48.8824 C42.3368984,49.6248 42.1283422,49.88 41.8966132,50.1816 L41.7575758,50.344 L41.7575758,50.344 Z M49.0106952,50.344 L55.6149733,50.344 L55.6149733,47.8152 L55.4527629,47.9544 C55.1515152,48.1864 54.7807487,48.4648 54.0392157,48.4648 L52.741533,48.4648 L52.741533,40.7624 C52.741533,40.02 52.9500891,39.7648 53.1818182,39.4632 L53.3208556,39.3008 L49.0106952,39.3008 L49.1497326,39.4632 C49.3814617,39.7648 49.5900178,40.02 49.5900178,40.7624 L49.5900178,48.8824 C49.5900178,49.6248 49.3814617,49.88 49.1497326,50.1816 L49.0106952,50.344 L49.0106952,50.344 Z M56.171123,50.344 L59.6702317,50.344 L59.600713,50.1584 C59.4153298,49.648 59.3921569,49.3464 59.4616756,48.836 L59.5543672,48.0008 L61.4545455,48.0008 L61.57041,48.952 C61.6167558,49.3 61.5935829,49.6944 61.4313725,50.1584 L61.3618538,50.344 L65.254902,50.344 L65.1158645,50.112 C64.9073084,49.7872 64.7219251,49.3464 64.6292335,48.7432 L63.3778966,40.9016 C63.285205,40.368 63.3315508,39.8808 63.4474153,39.4864 L63.516934,39.2776 L57.7932264,39.2776 L57.8627451,39.4864 C58.0017825,39.9504 58.0713012,40.368 57.9554367,41.0176 L56.7272727,48.9288 C56.6809269,49.2536 56.5650624,49.6248 56.3565062,49.996 L56.171123,50.344 L56.171123,50.344 Z M59.8092692,46.0984 L60.4349376,41.2264 L60.573975,41.2264 L61.1996435,46.0984 L59.8092692,46.0984 Z" id="Shape" fill="#FFFFFF" fill-rule="nonzero"></path></g></g></g></g></svg>