<svg xmlns="http://www.w3.org/2000/svg" xmlns:xlink="http://www.w3.org/1999/xlink" width="195px" height="48px" viewBox="0 0 195 48"><title>Squaremeal</title><g id="Page-1" stroke="none" stroke-width="1" fill="none" fill-rule="evenodd"><g id="Desktop-HD-Copy" transform="translate(-1107.000000, -3320.000000)" fill="#FFFFFF" fill-rule="nonzero"><g id="Footer" transform="translate(0.000000, 3287.000000)"><g id="Squaremeal" transform="translate(1107.000000, 33.000000)"><g id="squaremeal-logo"><path d="M31.7773879,13.0791673 C30.0800435,16.0246771 26.4568195,16.9571907 23.6765814,15.1640818 C20.8963433,13.3709729 20.0075921,9.52847008 21.6895109,6.57301156 C23.3714297,3.61755304 26.9897226,2.66372005 29.7792926,4.44043115 C32.5772496,6.24170344 33.4714502,10.1077665 31.7773879,13.0791673 M31.5016508,1.40817965 C29.3936314,0.0593607096 26.865581,-0.340985916 24.4783385,0.295955237 C22.091096,0.93289639 20.0420492,2.55446023 18.7857718,4.80090861 C16.3747179,8.8819853 17.1923692,14.2281028 20.6959509,17.2903921 L17.1313488,23.596627 C16.8682538,24.0690205 17.0126388,24.6781446 17.4550402,24.9622004 L18.8577032,25.8570327 C19.0722829,25.9938665 19.3293223,26.0345481 19.5721865,25.9701139 C19.8150507,25.9056797 20.0238106,25.7414171 20.152469,25.5135189 L23.7490407,19.1521521 C27.8697117,20.6715744 32.4284321,18.8975043 34.6466529,14.9112409 C35.9311991,12.6818658 36.3215888,9.99964751 35.7307448,7.46285972 C35.1399008,4.92607192 33.6169721,2.74573594 31.5016508,1.40817965" id="Shape"></path><path d="M0.269198276,17.8431635 C0.813115226,18.3694316 2.84005574,20 6.28203018,20 C10.140441,20 12.5753193,17.3643458 12.5753193,14.5043807 C12.5753193,10.9197185 9.51153708,9.32797319 6.85994194,8.22798659 C4.64178063,7.31348793 3.63043505,6.42487131 3.63043505,5.11782842 C3.63043505,4.2292118 4.48030529,3.17236193 6.03981717,3.17236193 C7.59932905,3.17236193 9.62202021,4.56136461 9.83873712,4.69940214 C10.0119553,4.78843164 10.2131851,4.80293125 10.3970544,4.73963168 C10.5809238,4.67633212 10.7319526,4.54056264 10.8160879,4.36293566 L11.8359322,2.79275871 C12.0228261,2.48956422 11.9488352,2.09147683 11.6659581,1.87826005 C10.0742389,0.706443305 8.16716055,0.057615522 6.20129251,0.019067023 C1.85420626,0.019067023 0.0482320155,2.87903217 0.0482320155,5.35076676 C0.0482320155,8.6248445 2.61908947,10.2899223 5.18994693,11.3467721 C7.48884592,12.2914665 8.66591619,13.2620429 8.66591619,14.6769276 C8.66591619,15.871815 7.59932905,16.8337641 6.17579641,16.8337641 C4.39531826,16.8337641 2.1814063,15.1945684 2.04542707,15.1082949 C1.90023676,14.9972267 1.7150204,14.9548729 1.53694098,14.9920184 C1.35886156,15.029164 1.20510344,15.1422244 1.11481916,15.3024102 L0.128969688,17.0278794 C-0.11749268,17.4592466 0.0227359085,17.6102252 0.269198276,17.8604182 M40.1748551,12.3734263 C40.2725675,16.5726941 43.6540113,19.9251971 47.7918171,19.9251971 C51.9296229,19.9251971 55.3110667,16.5726941 55.4087791,12.3734263 L55.4087791,0.821410187 C55.3978913,0.535463569 55.1720411,0.30619471 54.8903582,0.29514209 L52.2897553,0.29514209 C52.0034394,0.29514209 51.7713345,0.530760343 51.7713345,0.821410187 L51.7713345,12.2095067 C51.7713345,14.5388901 50.156581,16.4023968 47.7769444,16.4023968 C45.3973077,16.4023968 43.8122997,14.5388901 43.8122997,12.179311 L43.8122997,0.821410187 C43.8099663,0.530063957 43.576641,0.29514209 43.2896295,0.29514209 L40.693276,0.29514209 C40.4115931,0.30619471 40.1857429,0.535463569 40.1748551,0.821410187 L40.1748551,12.3734263 Z M58.9102444,19.7325523 L61.2898811,19.7325523 C61.645233,19.7403583 61.9655039,19.5160786 62.0845098,19.1760885 L63.4230554,16.1565174 L71.6030564,16.1565174 L72.941602,19.1760885 C73.0498882,19.5242697 73.3771426,19.7534399 73.7362307,19.7325523 L76.1158673,19.7325523 C76.2866346,19.7419134 76.4496111,19.6591776 76.5446749,19.5148661 C76.6397387,19.3705547 76.6528023,19.1860529 76.5790466,19.0294236 L68.1568326,0.325337801 C68.0832313,0.1309065 67.894251,0.00708196038 67.689404,0.019067023 L67.4174455,0.019067023 C67.2146846,0.014823741 67.0297087,0.136024532 66.9500169,0.325337801 L58.4428158,19.0294236 C58.3576891,19.1884727 58.3655164,19.3821367 58.4631921,19.5335722 C58.5608677,19.6850076 58.7325987,19.7697292 58.9102444,19.7541206 M64.7828478,13.0938097 L67.4641884,6.98564879 L67.5491754,6.98564879 L70.2815082,13.0938097 L64.7828478,13.0938097 Z M80.7306627,19.2062842 C80.7306627,19.496934 80.9627676,19.7325523 81.2490836,19.7325523 L83.7646995,19.7325523 C84.0480401,19.7237066 84.2763432,19.4938319 84.2873696,19.2062842 L84.2873696,12.1275469 L87.304409,12.1275469 L90.9418536,19.4866729 C91.0254322,19.644995 91.1899121,19.7418373 91.3667887,19.736866 L94.2393501,19.736866 C94.43323,19.7479828 94.6169728,19.6481756 94.7154305,19.4782639 C94.8138882,19.3083522 94.8105491,19.096831 94.7067787,18.9302091 L90.958851,11.8773539 C93.3384876,10.9067775 95.0084827,8.82327346 95.0084827,6.26957909 C94.9712344,2.96123772 92.3186141,0.299239687 89.059391,0.299455763 L81.2278368,0.299455763 C80.9415209,0.299455763 80.709416,0.535074016 80.709416,0.82572386 L80.7306627,19.2062842 Z M84.3128658,9.1511126 L84.3128658,3.62961126 L88.7491884,3.62961126 C90.2217148,3.63381552 91.4234669,4.82698848 91.4602794,6.32134316 C91.4630904,7.85527931 90.2597455,9.11130311 88.7491884,9.1511126 L84.3128658,9.1511126 Z M100.978821,19.2062842 C100.978821,19.496934 101.210926,19.7325523 101.497242,19.7325523 L112.630542,19.7325523 C112.768036,19.7325523 112.899898,19.6771063 112.997121,19.5784119 C113.094344,19.4797175 113.148981,19.3458592 113.148981,19.2062842 L113.148981,16.9286649 C113.150107,16.7887371 113.095855,16.654203 112.998383,16.5552557 C112.900911,16.4563085 112.768383,16.4012355 112.630542,16.4023968 L104.514281,16.4023968 L104.514281,11.5408874 L111.27075,11.5408874 C111.557066,11.5408874 111.78917,11.3052691 111.78917,11.0146193 L111.78917,8.70680429 C111.778283,8.42085767 111.552432,8.19158881 111.27075,8.18053619 L104.514281,8.18053619 L104.514281,3.62961126 L112.609295,3.62961126 C112.747528,3.62961597 112.880039,3.57357828 112.977385,3.47394893 C113.074731,3.37431958 113.128849,3.23935037 113.127716,3.09902949 L113.127716,0.821410187 C113.127716,0.530760343 112.895611,0.29514209 112.609295,0.29514209 L101.475995,0.29514209 C101.189679,0.29514209 100.957574,0.530760343 100.957574,0.821410187 L100.978821,19.2062842 Z M117.793504,19.0941287 C117.752045,19.2527128 117.788431,19.4218603 117.891238,19.5484644 C117.994044,19.6750684 118.150664,19.7436037 118.311924,19.7325523 L120.776548,19.7325523 C121.016935,19.7178441 121.217495,19.5408038 121.265224,19.301185 L122.850232,8.78013673 L122.935219,8.78013673 L127.77523,19.6894155 C127.854921,19.8787288 128.039897,19.9999296 128.242658,19.9956863 L128.731334,19.9956863 C128.936545,20.0090842 129.126279,19.8847658 129.198762,19.6894155 L133.962285,8.79307775 L134.047272,8.79307775 L135.657776,19.314126 C135.728346,19.553134 135.935555,19.7241459 136.180446,19.7454933 L138.666317,19.7454933 C138.828077,19.757429 138.984689,19.6849201 139.081864,19.553102 C139.179038,19.4212838 139.203396,19.2483048 139.146493,19.0941287 L135.933984,0.433179624 C135.913631,0.176692972 135.693962,-0.01554341 135.441059,0.00181233135 L135.016124,0.00181233135 C134.819564,-0.0157082994 134.633649,0.0951049676 134.552945,0.277887398 L128.523115,13.4216488 L128.442378,13.4216488 L122.421047,0.29514209 C122.332476,0.117620613 122.149417,0.00950152538 121.953618,0.019067023 L121.528683,0.019067023 C121.40689,0.00956761751 121.286392,0.049749752 121.193872,0.130715008 C121.101353,0.211680264 121.044448,0.326747313 121.035759,0.450434315 L117.793504,19.0941287 Z M144.925611,19.2062842 C144.925611,19.496934 145.157716,19.7325523 145.444032,19.7325523 L156.568833,19.7325523 C156.855149,19.7325523 157.087272,19.496934 157.087272,19.2062842 L157.087272,16.9286649 C157.088398,16.7887371 157.034146,16.654203 156.936674,16.5552557 C156.839202,16.4563085 156.706674,16.4012355 156.568833,16.4023968 L148.461071,16.4023968 L148.461071,11.5408874 L155.217539,11.5408874 C155.497196,11.5315746 155.719113,11.298662 155.718963,11.0146193 L155.718963,8.70680429 C155.708075,8.42085767 155.482225,8.19158881 155.200542,8.18053619 L148.444074,8.18053619 L148.444074,3.62961126 L156.568833,3.62961126 C156.707066,3.62961597 156.839577,3.57357828 156.936923,3.47394893 C157.034268,3.37431958 157.088387,3.23935037 157.087272,3.09902949 L157.087272,0.821410187 C157.087272,0.530760343 156.855149,0.29514209 156.568833,0.29514209 L145.435533,0.29514209 C145.149217,0.29514209 144.917112,0.530760343 144.917112,0.821410187 L144.925611,19.2062842 Z M161.668054,19.7325523 L164.05194,19.7325523 C164.405742,19.7384844 164.72381,19.5145499 164.84232,19.1760885 L166.180865,16.1565174 L174.360866,16.1565174 L175.703661,19.1760885 C175.810271,19.523601 176.136058,19.7529703 176.494041,19.7325523 L178.873677,19.7325523 C179.045922,19.7451765 179.211761,19.6637634 179.308964,19.5188639 C179.406166,19.3739644 179.420031,19.1874926 179.345355,19.0294236 L170.918892,0.325337801 C170.848008,0.130662709 170.659772,0.00619419705 170.455713,0.019067023 L170.166757,0.019067023 C169.964506,0.0129409328 169.779809,0.135068983 169.703578,0.325337801 L161.209125,19.0294236 C161.135798,19.1853391 161.148452,19.3688802 161.242458,19.5129071 C161.336464,19.6569341 161.49803,19.7403163 161.668054,19.7325523 M167.52366,13.0938097 L170.205001,6.98564879 L170.285739,6.98564879 L173.022321,13.0938097 L167.52366,13.0938097 Z M183.951652,19.2062842 C183.951652,19.496934 184.183757,19.7325523 184.470073,19.7325523 L194.481544,19.7325523 C194.76786,19.7325523 194.999983,19.496934 194.999983,19.2062842 L194.999983,16.9286649 C195.001109,16.7887371 194.946857,16.654203 194.849385,16.5552557 C194.751914,16.4563085 194.619386,16.4012355 194.481544,16.4023968 L187.512608,16.4023968 L187.512608,0.821410187 C187.501582,0.533862488 187.273279,0.30398779 186.989938,0.29514209 L184.474322,0.29514209 C184.188006,0.29514209 183.955901,0.530760343 183.955901,0.821410187 L183.951652,19.2062842 Z" id="Shape"></path></g><g id="Gold-award" transform="translate(59.188368, 36.960938)"><path d="M9.7578125,4.8203125 L9.7578125,5.0703125 C9.4140625,5.0703125 9.16666667,5.125 9.015625,5.234375 C8.86458333,5.34375 8.77083333,5.50260417 8.734375,5.7109375 C8.69791667,5.91927083 8.6796875,6.171875 8.6796875,6.46875 L8.6796875,9.3984375 C8.16927083,9.70052083 7.62630208,9.921875 7.05078125,10.0625 C6.47526042,10.203125 5.890625,10.2734375 5.296875,10.2734375 C4.31770833,10.2734375 3.42708333,10.0807292 2.625,9.6953125 C1.82291667,9.30989583 1.18489583,8.75390625 0.7109375,8.02734375 C0.236979167,7.30078125 0,6.421875 0,5.390625 C0,4.67708333 0.12890625,4.00911458 0.38671875,3.38671875 C0.64453125,2.76432292 1.00390625,2.21875 1.46484375,1.75 C1.92578125,1.28125 2.46484375,0.9140625 3.08203125,0.6484375 C3.69921875,0.3828125 4.3671875,0.25 5.0859375,0.25 C5.5703125,0.25 6.00390625,0.299479167 6.38671875,0.3984375 C6.76953125,0.497395833 7.08203125,0.596354167 7.32421875,0.6953125 C7.56640625,0.794270833 7.71875,0.84375 7.78125,0.84375 C7.91145833,0.84375 8.00260417,0.765625 8.0546875,0.609375 C8.10677083,0.453125 8.13541667,0.333333333 8.140625,0.25 L8.390625,0.25 L8.640625,3.2578125 L8.390625,3.2578125 C8.140625,2.4921875 7.76171875,1.87890625 7.25390625,1.41796875 C6.74609375,0.95703125 6.06770833,0.7265625 5.21875,0.7265625 C4.59375,0.7265625 4.05598958,0.84765625 3.60546875,1.08984375 C3.15494792,1.33203125 2.78255208,1.65885417 2.48828125,2.0703125 C2.19401042,2.48177083 1.9765625,2.94791667 1.8359375,3.46875 C1.6953125,3.98958333 1.625,4.52864583 1.625,5.0859375 C1.625,5.64322917 1.69921875,6.19791667 1.84765625,6.75 C1.99609375,7.30208333 2.22135417,7.80598958 2.5234375,8.26171875 C2.82552083,8.71744792 3.20833333,9.08203125 3.671875,9.35546875 C4.13541667,9.62890625 4.68489583,9.765625 5.3203125,9.765625 C5.6640625,9.765625 6.00520833,9.72395833 6.34375,9.640625 C6.68229167,9.55729167 6.99739583,9.42708333 7.2890625,9.25 L7.2890625,6.46875 C7.2890625,6.11458333 7.26302083,5.83854167 7.2109375,5.640625 C7.15885417,5.44270833 7.04427083,5.30078125 6.8671875,5.21484375 C6.69010417,5.12890625 6.41666667,5.08072917 6.046875,5.0703125 L6.046875,4.8203125 L9.7578125,4.8203125 Z" id="Path"></path><path d="M17.5763889,6.6796875 C17.5763889,7.3046875 17.4474826,7.88932292 17.1896701,8.43359375 C16.9318576,8.97786458 16.5659722,9.41796875 16.0920139,9.75390625 C15.6180556,10.0898438 15.0503472,10.2578125 14.3888889,10.2578125 C13.7690972,10.2578125 13.2274306,10.0963542 12.7638889,9.7734375 C12.3003472,9.45052083 11.9422743,9.03125 11.6896701,8.515625 C11.437066,8 11.3107639,7.45052083 11.3107639,6.8671875 C11.3107639,6.26302083 11.4396701,5.6953125 11.6974826,5.1640625 C11.9552951,4.6328125 12.3198785,4.20182292 12.7912326,3.87109375 C13.2625868,3.54036458 13.8185764,3.375 14.4592014,3.375 C15.0894097,3.375 15.6375868,3.5234375 16.1037326,3.8203125 C16.5698785,4.1171875 16.9318576,4.515625 17.1896701,5.015625 C17.4474826,5.515625 17.5763889,6.0703125 17.5763889,6.6796875 Z M16.2560764,7.234375 C16.2560764,6.921875 16.2248264,6.57291667 16.1623264,6.1875 C16.0998264,5.80208333 15.9917535,5.4296875 15.8381076,5.0703125 C15.6844618,4.7109375 15.4774306,4.41536458 15.2170139,4.18359375 C14.9565972,3.95182292 14.6258681,3.8359375 14.2248264,3.8359375 C13.7977431,3.8359375 13.4709201,3.96875 13.2443576,4.234375 C13.0177951,4.5 12.8615451,4.82161458 12.7756076,5.19921875 C12.6896701,5.57682292 12.6467014,5.9375 12.6467014,6.28125 C12.6467014,6.58854167 12.6792535,6.9375 12.7443576,7.328125 C12.8094618,7.71875 12.9188368,8.09635417 13.0724826,8.4609375 C13.2261285,8.82552083 13.4331597,9.12760417 13.6935764,9.3671875 C13.9539931,9.60677083 14.2821181,9.7265625 14.6779514,9.7265625 C15.1310764,9.7265625 15.4709201,9.59244792 15.6974826,9.32421875 C15.9240451,9.05598958 16.0737847,8.72916667 16.1467014,8.34375 C16.2196181,7.95833333 16.2560764,7.58854167 16.2560764,7.234375 Z" id="Shape"></path><path d="M22.6762153,10.0390625 L19.4887153,10.0390625 L19.4887153,9.765625 C19.9366319,9.765625 20.2100694,9.66276042 20.3090278,9.45703125 C20.4079861,9.25130208 20.4574653,8.95833333 20.4574653,8.578125 L20.4574653,2.078125 C20.4574653,1.765625 20.4301215,1.49348958 20.375434,1.26171875 C20.3207465,1.02994792 20.1736111,0.9140625 19.9340278,0.9140625 C19.8611111,0.9140625 19.7894965,0.923177083 19.719184,0.94140625 C19.6488715,0.959635417 19.5720486,0.981770833 19.4887153,1.0078125 L19.3793403,0.765625 L21.3168403,0 L21.6293403,0 L21.6293403,8.578125 C21.6293403,9.01041667 21.6866319,9.31640625 21.8012153,9.49609375 C21.9157986,9.67578125 22.2074653,9.765625 22.6762153,9.765625 L22.6762153,10.0390625 Z" id="Path"></path><path d="M31.1744792,9.4453125 L29.2135417,10.2578125 L28.9088542,10.2578125 L28.9088542,9.3046875 C28.6484375,9.57552083 28.3606771,9.80208333 28.0455729,9.984375 C27.7304687,10.1666667 27.3854167,10.2578125 27.0104167,10.2578125 C26.4479167,10.2578125 25.96875,10.0976562 25.5729167,9.77734375 C25.1770833,9.45703125 24.875,9.05338542 24.6666667,8.56640625 C24.4583333,8.07942708 24.3541667,7.5859375 24.3541667,7.0859375 C24.3541667,6.63802083 24.4257812,6.1953125 24.5690104,5.7578125 C24.7122396,5.3203125 24.9205729,4.921875 25.1940104,4.5625 C25.4674479,4.203125 25.7981771,3.91536458 26.1861979,3.69921875 C26.5742187,3.48307292 27.0130208,3.375 27.5026042,3.375 C27.7630208,3.375 28.0143229,3.41666667 28.2565104,3.5 C28.4986979,3.58333333 28.7161458,3.72135417 28.9088542,3.9140625 L28.9088542,1.8203125 C28.9088542,1.54427083 28.8710937,1.32421875 28.7955729,1.16015625 C28.7200521,0.99609375 28.5911458,0.9140625 28.4088542,0.9140625 C28.3255208,0.9140625 28.2434896,0.923177083 28.1627604,0.94140625 C28.0820312,0.959635417 27.9973958,0.981770833 27.9088542,1.0078125 L27.8151042,0.765625 L29.7760417,0 L30.0807292,0 L30.0807292,8.0546875 C30.0807292,8.41927083 30.1080729,8.71875 30.1627604,8.953125 C30.2174479,9.1875 30.3619792,9.3046875 30.5963542,9.3046875 C30.6744792,9.3046875 30.7565104,9.29296875 30.8424479,9.26953125 C30.9283854,9.24609375 31.0130208,9.22135417 31.0963542,9.1953125 L31.1744792,9.4453125 Z M28.9088542,8.8125 L28.9088542,5.4765625 C28.9088542,5.20572917 28.84375,4.94140625 28.7135417,4.68359375 C28.5833333,4.42578125 28.40625,4.21354167 28.1822917,4.046875 C27.9583333,3.88020833 27.7005208,3.796875 27.4088542,3.796875 C27.0755208,3.796875 26.7955729,3.88541667 26.5690104,4.0625 C26.3424479,4.23958333 26.1627604,4.46744792 26.0299479,4.74609375 C25.8971354,5.02473958 25.8020833,5.3203125 25.7447917,5.6328125 C25.6875,5.9453125 25.6588542,6.23697917 25.6588542,6.5078125 C25.6588542,6.8046875 25.6927083,7.12369792 25.7604167,7.46484375 C25.828125,7.80598958 25.9401042,8.12890625 26.0963542,8.43359375 C26.2526042,8.73828125 26.4570312,8.98697917 26.7096354,9.1796875 C26.9622396,9.37239583 27.2708333,9.46875 27.6354167,9.46875 C27.890625,9.46875 28.1263021,9.40494792 28.3424479,9.27734375 C28.5585937,9.14973958 28.7473958,8.99479167 28.9088542,8.8125 Z" id="Shape"></path><path d="M43.6006944,8.6953125 L43.6006944,9.1015625 C43.4236111,9.34114583 43.2048611,9.57942708 42.9444444,9.81640625 C42.6840278,10.0533854 42.3897569,10.171875 42.0616319,10.171875 C41.7595486,10.171875 41.5590278,10.0572917 41.4600694,9.828125 C41.3611111,9.59895833 41.3116319,9.35677083 41.3116319,9.1015625 C40.9991319,9.3515625 40.6814236,9.59244792 40.3585069,9.82421875 C40.0355903,10.0559896 39.6631944,10.171875 39.2413194,10.171875 C38.7517361,10.171875 38.3728299,10.0117188 38.1046007,9.69140625 C37.8363715,9.37109375 37.7022569,8.97395833 37.7022569,8.5 C37.7022569,8.109375 37.8298611,7.76432292 38.0850694,7.46484375 C38.3402778,7.16536458 38.6618924,6.90625 39.0499132,6.6875 C39.437934,6.46875 39.8363715,6.28385417 40.2452257,6.1328125 C40.6540799,5.98177083 41.0095486,5.85677083 41.3116319,5.7578125 L41.3116319,5.4921875 C41.3116319,5.20052083 41.2829861,4.92578125 41.2256944,4.66796875 C41.1684028,4.41015625 41.0538194,4.20052083 40.8819444,4.0390625 C40.7100694,3.87760417 40.4496528,3.796875 40.1006944,3.796875 C39.6736111,3.796875 39.4079861,3.91015625 39.3038194,4.13671875 C39.1996528,4.36328125 39.1475694,4.65364583 39.1475694,5.0078125 C39.1475694,5.21614583 39.1059028,5.38020833 39.0225694,5.5 C38.9392361,5.61979167 38.7803819,5.6796875 38.5460069,5.6796875 C38.3272569,5.6796875 38.1736111,5.6171875 38.0850694,5.4921875 C37.9965278,5.3671875 37.9522569,5.20572917 37.9522569,5.0078125 C37.9522569,4.6171875 38.0824653,4.30208333 38.3428819,4.0625 C38.6032986,3.82291667 38.9171007,3.6484375 39.2842882,3.5390625 C39.6514757,3.4296875 39.9965278,3.375 40.3194444,3.375 C41.1371528,3.375 41.7022569,3.54166667 42.0147569,3.875 C42.3272569,4.20833333 42.4835069,4.77864583 42.4835069,5.5859375 L42.4835069,7.7890625 C42.4835069,7.97135417 42.484809,8.17578125 42.4874132,8.40234375 C42.4900174,8.62890625 42.5017361,8.80208333 42.5225694,8.921875 C42.5329861,9.01041667 42.5616319,9.09114583 42.6085069,9.1640625 C42.6553819,9.23697917 42.7282986,9.2734375 42.8272569,9.2734375 C42.9001736,9.2734375 42.9887153,9.234375 43.0928819,9.15625 C43.1970486,9.078125 43.297309,8.99348958 43.3936632,8.90234375 C43.4900174,8.81119792 43.5590278,8.7421875 43.6006944,8.6953125 Z M41.3116319,8.6328125 L41.3116319,6.15625 C40.9939236,6.27604167 40.6462674,6.42708333 40.2686632,6.609375 C39.891059,6.79166667 39.5668403,7.01171875 39.2960069,7.26953125 C39.0251736,7.52734375 38.8897569,7.828125 38.8897569,8.171875 C38.8897569,8.453125 38.9782986,8.71875 39.1553819,8.96875 C39.3324653,9.21875 39.5798611,9.34375 39.8975694,9.34375 C40.1423611,9.34375 40.391059,9.26432292 40.6436632,9.10546875 C40.8962674,8.94661458 41.1189236,8.7890625 41.3116319,8.6328125 Z" id="Shape"></path><path d="M54.8333333,3.5703125 L54.8333333,3.8359375 C54.609375,3.8671875 54.421875,3.95703125 54.2708333,4.10546875 C54.1197917,4.25390625 54.0026042,4.43489583 53.9192708,4.6484375 L51.7630208,10.2578125 L51.4739583,10.2578125 L49.8411458,6.1015625 L47.9817708,10.2578125 L47.7083333,10.2578125 L45.6223958,4.796875 C45.5078125,4.49479167 45.390625,4.2734375 45.2708333,4.1328125 C45.1510417,3.9921875 44.921875,3.89322917 44.5833333,3.8359375 L44.5833333,3.5703125 L47.3098958,3.5703125 L47.3098958,3.8359375 C47.1536458,3.8359375 47.015625,3.86197917 46.8958333,3.9140625 C46.7760417,3.96614583 46.7161458,4.08854167 46.7161458,4.28125 C46.7161458,4.453125 46.7473958,4.625 46.8098958,4.796875 L48.2083333,8.5234375 L49.5989583,5.4921875 C49.4895833,5.1953125 49.3958333,4.92317708 49.3177083,4.67578125 C49.2395833,4.42838542 49.1223958,4.22786458 48.9661458,4.07421875 C48.8098958,3.92057292 48.5572917,3.84114583 48.2083333,3.8359375 L48.2083333,3.5703125 L51.3020833,3.5703125 L51.3020833,3.8359375 C51.09375,3.84635417 50.8945312,3.87760417 50.7044271,3.9296875 C50.5143229,3.98177083 50.4192708,4.13802083 50.4192708,4.3984375 C50.4192708,4.4609375 50.4648437,4.61979167 50.5559896,4.875 C50.6471354,5.13020833 50.7630208,5.43359375 50.9036458,5.78515625 C51.0442708,6.13671875 51.1888021,6.49088542 51.3372396,6.84765625 C51.4856771,7.20442708 51.6184896,7.52213542 51.7356771,7.80078125 C51.8528646,8.07942708 51.9322917,8.26822917 51.9739583,8.3671875 L53.3177083,4.796875 C53.359375,4.69791667 53.3945312,4.59765625 53.4231771,4.49609375 C53.4518229,4.39453125 53.4661458,4.2890625 53.4661458,4.1796875 C53.4661458,4.01822917 53.3828125,3.92057292 53.2161458,3.88671875 C53.0494792,3.85286458 52.90625,3.8359375 52.7864583,3.8359375 L52.7864583,3.5703125 L54.8333333,3.5703125 Z" id="Path"></path><path d="M62.2534722,8.6953125 L62.2534722,9.1015625 C62.0763889,9.34114583 61.8576389,9.57942708 61.5972222,9.81640625 C61.3368056,10.0533854 61.0425347,10.171875 60.7144097,10.171875 C60.4123264,10.171875 60.2118056,10.0572917 60.1128472,9.828125 C60.0138889,9.59895833 59.9644097,9.35677083 59.9644097,9.1015625 C59.6519097,9.3515625 59.3342014,9.59244792 59.0112847,9.82421875 C58.6883681,10.0559896 58.3159722,10.171875 57.8940972,10.171875 C57.4045139,10.171875 57.0256076,10.0117188 56.7573785,9.69140625 C56.4891493,9.37109375 56.3550347,8.97395833 56.3550347,8.5 C56.3550347,8.109375 56.4826389,7.76432292 56.7378472,7.46484375 C56.9930556,7.16536458 57.3146701,6.90625 57.702691,6.6875 C58.0907118,6.46875 58.4891493,6.28385417 58.8980035,6.1328125 C59.3068576,5.98177083 59.6623264,5.85677083 59.9644097,5.7578125 L59.9644097,5.4921875 C59.9644097,5.20052083 59.9357639,4.92578125 59.8784722,4.66796875 C59.8211806,4.41015625 59.7065972,4.20052083 59.5347222,4.0390625 C59.3628472,3.87760417 59.1024306,3.796875 58.7534722,3.796875 C58.3263889,3.796875 58.0607639,3.91015625 57.9565972,4.13671875 C57.8524306,4.36328125 57.8003472,4.65364583 57.8003472,5.0078125 C57.8003472,5.21614583 57.7586806,5.38020833 57.6753472,5.5 C57.5920139,5.61979167 57.4331597,5.6796875 57.1987847,5.6796875 C56.9800347,5.6796875 56.8263889,5.6171875 56.7378472,5.4921875 C56.6493056,5.3671875 56.6050347,5.20572917 56.6050347,5.0078125 C56.6050347,4.6171875 56.7352431,4.30208333 56.9956597,4.0625 C57.2560764,3.82291667 57.5698785,3.6484375 57.937066,3.5390625 C58.3042535,3.4296875 58.6493056,3.375 58.9722222,3.375 C59.7899306,3.375 60.3550347,3.54166667 60.6675347,3.875 C60.9800347,4.20833333 61.1362847,4.77864583 61.1362847,5.5859375 L61.1362847,7.7890625 C61.1362847,7.97135417 61.1375868,8.17578125 61.140191,8.40234375 C61.1427951,8.62890625 61.1545139,8.80208333 61.1753472,8.921875 C61.1857639,9.01041667 61.2144097,9.09114583 61.2612847,9.1640625 C61.3081597,9.23697917 61.3810764,9.2734375 61.4800347,9.2734375 C61.5529514,9.2734375 61.6414931,9.234375 61.7456597,9.15625 C61.8498264,9.078125 61.9500868,8.99348958 62.046441,8.90234375 C62.1427951,8.81119792 62.2118056,8.7421875 62.2534722,8.6953125 Z M59.9644097,8.6328125 L59.9644097,6.15625 C59.6467014,6.27604167 59.2990451,6.42708333 58.921441,6.609375 C58.5438368,6.79166667 58.2196181,7.01171875 57.9487847,7.26953125 C57.6779514,7.52734375 57.5425347,7.828125 57.5425347,8.171875 C57.5425347,8.453125 57.6310764,8.71875 57.8081597,8.96875 C57.9852431,9.21875 58.2326389,9.34375 58.5503472,9.34375 C58.7951389,9.34375 59.0438368,9.26432292 59.296441,9.10546875 C59.5490451,8.94661458 59.7717014,8.7890625 59.9644097,8.6328125 Z" id="Shape"></path><path d="M68.0876736,4.1640625 C68.0876736,4.3359375 68.0238715,4.48828125 67.8962674,4.62109375 C67.7686632,4.75390625 67.6163194,4.8203125 67.4392361,4.8203125 C67.2829861,4.8203125 67.1501736,4.77864583 67.0407986,4.6953125 C66.9314236,4.61197917 66.8311632,4.52864583 66.7400174,4.4453125 C66.6488715,4.36197917 66.5486111,4.3203125 66.4392361,4.3203125 C66.3038194,4.3203125 66.1514757,4.42578125 65.9822049,4.63671875 C65.812934,4.84765625 65.6527778,5.10416667 65.5017361,5.40625 L65.5017361,8.5390625 C65.5017361,8.95052083 65.5798611,9.2578125 65.7361111,9.4609375 C65.8923611,9.6640625 66.1918403,9.765625 66.6345486,9.765625 L66.6345486,10.0390625 L63.2907986,10.0390625 L63.2907986,9.765625 C63.6137153,9.765625 63.8467882,9.72916667 63.9900174,9.65625 C64.1332465,9.58333333 64.2230903,9.4609375 64.2595486,9.2890625 C64.2960069,9.1171875 64.3142361,8.88020833 64.3142361,8.578125 L64.3142361,5.78125 C64.3142361,5.33333333 64.2855903,4.97786458 64.2282986,4.71484375 C64.1710069,4.45182292 64.0043403,4.3203125 63.7282986,4.3203125 C63.5980903,4.3203125 63.4522569,4.3515625 63.2907986,4.4140625 L63.2126736,4.1640625 L65.2126736,3.375 L65.5017361,3.375 L65.5017361,4.8359375 C65.6111111,4.63802083 65.7465278,4.42578125 65.9079861,4.19921875 C66.0694444,3.97265625 66.2569444,3.77864583 66.4704861,3.6171875 C66.6840278,3.45572917 66.9184028,3.375 67.1736111,3.375 C67.4027778,3.375 67.6124132,3.44401042 67.8025174,3.58203125 C67.9926215,3.72005208 68.0876736,3.9140625 68.0876736,4.1640625 Z" id="Path"></path><path d="M76.296875,9.4453125 L74.3359375,10.2578125 L74.03125,10.2578125 L74.03125,9.3046875 C73.7708333,9.57552083 73.4830729,9.80208333 73.1679688,9.984375 C72.8528646,10.1666667 72.5078125,10.2578125 72.1328125,10.2578125 C71.5703125,10.2578125 71.0911458,10.0976562 70.6953125,9.77734375 C70.2994792,9.45703125 69.9973958,9.05338542 69.7890625,8.56640625 C69.5807292,8.07942708 69.4765625,7.5859375 69.4765625,7.0859375 C69.4765625,6.63802083 69.5481771,6.1953125 69.6914062,5.7578125 C69.8346354,5.3203125 70.0429688,4.921875 70.3164062,4.5625 C70.5898438,4.203125 70.9205729,3.91536458 71.3085938,3.69921875 C71.6966146,3.48307292 72.1354167,3.375 72.625,3.375 C72.8854167,3.375 73.1367188,3.41666667 73.3789062,3.5 C73.6210938,3.58333333 73.8385417,3.72135417 74.03125,3.9140625 L74.03125,1.8203125 C74.03125,1.54427083 73.9934896,1.32421875 73.9179688,1.16015625 C73.8424479,0.99609375 73.7135417,0.9140625 73.53125,0.9140625 C73.4479167,0.9140625 73.3658854,0.923177083 73.2851562,0.94140625 C73.2044271,0.959635417 73.1197917,0.981770833 73.03125,1.0078125 L72.9375,0.765625 L74.8984375,0 L75.203125,0 L75.203125,8.0546875 C75.203125,8.41927083 75.2304688,8.71875 75.2851562,8.953125 C75.3398438,9.1875 75.484375,9.3046875 75.71875,9.3046875 C75.796875,9.3046875 75.8789062,9.29296875 75.9648438,9.26953125 C76.0507812,9.24609375 76.1354167,9.22135417 76.21875,9.1953125 L76.296875,9.4453125 Z M74.03125,8.8125 L74.03125,5.4765625 C74.03125,5.20572917 73.9661458,4.94140625 73.8359375,4.68359375 C73.7057292,4.42578125 73.5286458,4.21354167 73.3046875,4.046875 C73.0807292,3.88020833 72.8229167,3.796875 72.53125,3.796875 C72.1979167,3.796875 71.9179688,3.88541667 71.6914062,4.0625 C71.4648438,4.23958333 71.2851562,4.46744792 71.1523438,4.74609375 C71.0195312,5.02473958 70.9244792,5.3203125 70.8671875,5.6328125 C70.8098958,5.9453125 70.78125,6.23697917 70.78125,6.5078125 C70.78125,6.8046875 70.8151042,7.12369792 70.8828125,7.46484375 C70.9505208,7.80598958 71.0625,8.12890625 71.21875,8.43359375 C71.375,8.73828125 71.5794271,8.98697917 71.8320312,9.1796875 C72.0846354,9.37239583 72.3932292,9.46875 72.7578125,9.46875 C73.0130208,9.46875 73.2486979,9.40494792 73.4648438,9.27734375 C73.6809896,9.14973958 73.8697917,8.99479167 74.03125,8.8125 Z" id="Shape"></path></g></g></g></g></g></svg>